<?xml version="1.0" standalone="no"?>
<!DOCTYPE svg PUBLIC "-//W3C//DTD SVG 1.1//EN" "http://www.w3.org/Graphics/SVG/1.1/DTD/svg11.dtd" >
<svg>
<metadata>
Created by FontForge 20110222 at Fri May 23 08:44:24 2014
 By deploy user
Copyright (C) 2001, 2008 Hoefler &#38; Frere-Jones. http://www.typography.com
</metadata>
<defs>
<font id="GothamCondensed-Light" horiz-adv-x="240" >
  <font-face 
    font-family="Gotham Condensed Light"
    font-weight="300"
    font-stretch="condensed"
    units-per-em="1000"
    panose-1="0 0 0 0 0 0 0 0 0 0"
    ascent="800"
    descent="-200"
    x-height="525"
    cap-height="700"
    bbox="-129 -200 726 914"
    underline-thickness="50"
    underline-position="-50"
    unicode-range="U+0020-FB04"
  />
<missing-glyph horiz-adv-x="500" 
d="M0 -200v1000h500v-1000h-500zM71 750l179 -390l179 390h-358zM50 -76l172 376l-172 376v-752zM450 676l-172 -376l172 -376v752zM250 240l-179 -390h358z" />
    <glyph glyph-name="f_f" unicode="ff" horiz-adv-x="432" 
d="M290 0v486h-54v39h54v61q0 66 31 97q26 26 71 26q15 0 31 -4v-41q-16 4 -30 4q-61 0 -61 -83v-60h86v-39h-86v-486h-42zM74 0v486h-54v39h54v61q0 66 31 97q26 26 71 26q15 0 31 -4v-41q-16 4 -30 4q-61 0 -61 -83v-60h86v-39h-86v-486h-42z" />
    <glyph glyph-name="fi" unicode="fi" horiz-adv-x="376" 
d="M74 0v486h-54v39h54v61q0 66 31 97q26 26 71 26q15 0 31 -4v-41q-16 4 -30 4q-61 0 -61 -83v-60h86v-39h-86v-486h-42zM275 0v525h42v-525h-42zM273 637v70h46v-70h-46z" />
    <glyph glyph-name="fl" unicode="fl" horiz-adv-x="376" 
d="M74 0v486h-54v39h54v61q0 66 31 97q26 26 71 26q15 0 31 -4v-41q-16 4 -30 4q-61 0 -61 -83v-60h86v-39h-86v-486h-42zM275 0v707h42v-707h-42z" />
    <glyph glyph-name="f_f_i" unicode="ffi" horiz-adv-x="592" 
d="M290 0v486h-54v39h54v61q0 66 31 97q26 26 71 26q15 0 31 -4v-41q-16 4 -30 4q-61 0 -61 -83v-60h86v-39h-86v-486h-42zM74 0v486h-54v39h54v61q0 66 31 97q26 26 71 26q15 0 31 -4v-41q-16 4 -30 4q-61 0 -61 -83v-60h86v-39h-86v-486h-42zM491 0v525h42v-525h-42z
M489 637v70h46v-70h-46z" />
    <glyph glyph-name="f_f_l" unicode="ffl" horiz-adv-x="592" 
d="M290 0v486h-54v39h54v61q0 66 31 97q26 26 71 26q15 0 31 -4v-41q-16 4 -30 4q-61 0 -61 -83v-60h86v-39h-86v-486h-42zM74 0v486h-54v39h54v61q0 66 31 97q26 26 71 26q15 0 31 -4v-41q-16 4 -30 4q-61 0 -61 -83v-60h86v-39h-86v-486h-42zM491 0v707h42v-707h-42z" />
    <glyph glyph-name=".notdef" horiz-adv-x="500" 
d="M0 -200v1000h500v-1000h-500zM71 750l179 -390l179 390h-358zM50 -76l172 376l-172 376v-752zM450 676l-172 -376l172 -376v752zM250 240l-179 -390h358z" />
    <glyph glyph-name=".null" horiz-adv-x="0" 
 />
    <glyph glyph-name="nonmarkingreturn" horiz-adv-x="333" 
 />
    <glyph glyph-name="space" unicode=" " horiz-adv-x="165" 
 />
    <glyph glyph-name="exclam" unicode="!" horiz-adv-x="192" 
d="M85 183l-15 447v70h52v-70l-15 -447h-22zM66 0v82h60v-82h-60z" />
    <glyph glyph-name="quotedbl" unicode="&#x22;" horiz-adv-x="231" 
d="M149 458v242h50v-9l-31 -233h-19zM44 458v242h50v-9l-31 -233h-19z" />
    <glyph glyph-name="numbersign" unicode="#" horiz-adv-x="388" 
d="M347 226v-40h-75l-14 -186h-35l14 186h-111l-14 -186h-35l14 186h-69v40h72l19 248h-72v40h75l14 186h35l-14 -186h111l14 186h35l-14 -186h69v-40h-72l-19 -248h72zM148 474l-19 -248h111l19 248h-111z" />
    <glyph glyph-name="dollar" unicode="$" horiz-adv-x="340" 
d="M289 671v-46q-60 38 -104 41v-286q125 -85 125 -207v-3q0 -67 -33.5 -115t-91.5 -58v-96h-34v93q-63 1 -121 34v46q61 -40 121 -41v315q-63 41 -93.5 84.5t-30.5 112.5v2q0 60 34.5 102.5t89.5 52.5v66h34v-63q51 -1 104 -34zM268 173q0 95 -83 156v-293q41 10 62 47
t21 88v2zM69 545q0 -52 20.5 -85t61.5 -62v264q-38 -9 -60 -40t-22 -75v-2z" />
    <glyph glyph-name="percent" unicode="%" horiz-adv-x="500" 
d="M130 373q-43 0 -73 43.5t-30 118.5v8q0 75 30 118.5t73 43.5t73 -43.5t30 -118.5v-8q0 -75 -30 -118.5t-73 -43.5zM130 667q-29 0 -47.5 -33.5t-18.5 -90.5v-8q0 -57 18.5 -90.5t47.5 -33.5t47.5 33.5t18.5 90.5v8q0 57 -18.5 90.5t-47.5 33.5zM235 357l153 343h37
l-160 -357l-153 -343h-37zM370 -5q-43 0 -73 43.5t-30 118.5v8q0 75 30 118.5t73 43.5t73 -43.5t30 -118.5v-8q0 -75 -30 -118.5t-73 -43.5zM370 33q29 0 47.5 33.5t18.5 90.5v8q0 57 -18.5 90.5t-47.5 33.5t-47.5 -33.5t-18.5 -90.5v-8q0 -57 18.5 -90.5t47.5 -33.5z" />
    <glyph glyph-name="ampersand" unicode="&#x26;" horiz-adv-x="410" 
d="M362 -7l-55 102q-58 -102 -142 -102q-62 0 -100 50t-38 119v7q0 125 112 225q-38 64 -53.5 103.5t-15.5 74.5v5q0 52 33.5 91.5t84.5 39.5q52 0 82.5 -38t30.5 -87v-6q0 -52 -27.5 -96t-83.5 -96l113 -209q20 64 32 159l38 -6q-15 -110 -45 -194l69 -121zM171 416
q88 76 88 161v3q0 37 -19.5 63.5t-51.5 26.5q-34 0 -55 -27t-21 -65v-2q0 -34 12.5 -68t46.5 -92zM167 33q67 0 118 98l-128 232q-86 -76 -86 -191v-6q0 -56 27 -94.5t69 -38.5z" />
    <glyph glyph-name="quotesingle" unicode="'" horiz-adv-x="116" 
d="M44 458v242h50v-9l-31 -233h-19z" />
    <glyph glyph-name="parenleft" unicode="(" horiz-adv-x="235" 
d="M220 -137q-84 60 -134 168t-50 259t50 259t134 168v-35q-142 -135 -142 -392t142 -392v-35z" />
    <glyph glyph-name="parenright" unicode=")" horiz-adv-x="235" 
d="M15 -137v35q142 135 142 392t-142 392v35q84 -60 134 -168t50 -259t-50 -259t-134 -168z" />
    <glyph glyph-name="asterisk" unicode="*" horiz-adv-x="278" 
d="M121 432l8 116l-83 -62l-19 31l94 50l-94 50l19 31l83 -62l-8 116h36l-8 -116l83 62l19 -31l-94 -50l94 -50l-19 -31l-83 62l8 -116h-36z" />
    <glyph glyph-name="plus" unicode="+" horiz-adv-x="340" 
d="M150 207v125h-121v40h121v125h40v-125h121v-40h-121v-125h-40z" />
    <glyph glyph-name="comma" unicode="," horiz-adv-x="150" 
d="M32 -103l-12 25q55 24 51 78h-27v82h62v-71q0 -46 -16 -70t-58 -44z" />
    <glyph glyph-name="hyphen" unicode="-" horiz-adv-x="268" 
d="M40 276v40h188v-40h-188z" />
    <glyph glyph-name="period" unicode="." horiz-adv-x="150" 
d="M44 0v82h62v-82h-62z" />
    <glyph glyph-name="slash" unicode="/" horiz-adv-x="260" 
d="M-4 -98l218 866h38l-218 -866h-38z" />
    <glyph glyph-name="zero" unicode="0" horiz-adv-x="372" 
d="M186 -8q-69 0 -108 85t-39 264v16q0 179 39 265t108 86t108 -85t39 -264v-16q0 -179 -39 -265t-108 -86zM186 32q48 0 75.5 78t27.5 231v16q0 153 -27.5 232t-75.5 79t-75.5 -78t-27.5 -231v-16q0 -153 27.5 -232t75.5 -79z" />
    <glyph glyph-name="one" unicode="1" horiz-adv-x="205" 
d="M96 0v646l-73 -43v50l77 47h39v-700h-43z" />
    <glyph glyph-name="two" unicode="2" horiz-adv-x="329" 
d="M25 0v29l169 347q49 101 49 174q0 52 -27 83t-71 31q-51 0 -102 -32v47q49 29 104 29q64 0 102.5 -42t38.5 -111v-4q0 -47 -14 -89.5t-45 -108.5l-150 -310h215v-43h-269z" />
    <glyph glyph-name="three" unicode="3" horiz-adv-x="310" 
d="M112 -8q-47 0 -88 17v43q43 -19 90 -19q50 0 86.5 45.5t36.5 122.5v6q0 135 -150 149v31l138 268h-201v45h254v-29l-144 -281q65 -13 106 -57t41 -125v-7q0 -95 -49 -152t-120 -57z" />
    <glyph glyph-name="four" unicode="4" horiz-adv-x="343" 
d="M229 0v161h-210v34l213 510h37v-506h55v-38h-55v-161h-40zM61 199h168v405z" />
    <glyph glyph-name="five" unicode="5" horiz-adv-x="328" 
d="M122 -8q-47 0 -83 18v43q40 -20 84 -20q53 0 89 51.5t36 132.5v4q0 81 -31 118.5t-79 37.5q-33 0 -68 -14l-30 20l14 317h212v-43h-174l-11 -250q31 12 61 12q65 0 107.5 -49.5t42.5 -147.5v-4q0 -99 -48.5 -162.5t-121.5 -63.5z" />
    <glyph glyph-name="six" unicode="6" horiz-adv-x="354" 
d="M181 -8q-44 0 -74 30q-66 66 -66 272v30q0 198 46 291t126 93q35 0 67 -14v-46q-34 17 -70 17q-43 0 -72 -43.5t-41 -104t-13 -132.5q50 50 104 50q57 0 96 -53t39 -158v-4q0 -101 -41 -164.5t-101 -63.5zM182 31q45 0 72 54t27 134v4q0 84 -28 128t-69 44
q-44 0 -100 -54v-55q0 -138 28 -196.5t70 -58.5z" />
    <glyph glyph-name="seven" unicode="7" horiz-adv-x="308" 
d="M68 0l162 657h-198v43h241v-38l-162 -662h-43z" />
    <glyph glyph-name="eight" unicode="8" horiz-adv-x="328" 
d="M164 -8q-61 0 -99.5 51.5t-38.5 134.5v7q0 61 24.5 108.5t66.5 67.5q-79 46 -79 166v6q0 81 36.5 128t89.5 47t89.5 -47t36.5 -128v-6q0 -120 -79 -166q42 -20 66.5 -67.5t24.5 -108.5v-7q0 -83 -38.5 -134.5t-99.5 -51.5zM164 380q36 0 59.5 44.5t23.5 103.5v4
q0 62 -23 99.5t-60 37.5t-60 -37.5t-23 -99.5v-4q0 -59 23.5 -103.5t59.5 -44.5zM164 31q43 0 69.5 42t26.5 107v3q0 68 -27.5 113t-68.5 45t-68.5 -45t-27.5 -113v-3q0 -65 26.5 -107t69.5 -42z" />
    <glyph glyph-name="nine" unicode="9" horiz-adv-x="354" 
d="M144 35q32 0 57 23.5t39 64t21 86.5t8 97q-51 -49 -103 -49q-58 0 -96.5 53.5t-38.5 161.5v4q0 104 40.5 168t101.5 64q44 0 74 -30q66 -66 66 -272v-30q0 -198 -46 -291t-126 -93q-39 0 -77 17v46q38 -20 80 -20zM170 297q44 0 100 54v64q0 137 -28 195.5t-70 58.5
q-45 0 -72 -55t-27 -137v-4q0 -88 27.5 -132t69.5 -44z" />
    <glyph glyph-name="colon" unicode=":" horiz-adv-x="160" 
d="M49 443v82h62v-82h-62zM49 0v82h62v-82h-62z" />
    <glyph glyph-name="semicolon" unicode=";" horiz-adv-x="160" 
d="M49 443v82h62v-82h-62zM37 -103l-12 25q55 24 51 78h-27v82h62v-71q0 -46 -16 -70t-58 -44z" />
    <glyph glyph-name="less" unicode="&#x3c;" horiz-adv-x="340" 
d="M288 181l-248 151v40l248 151v-50l-204 -121l204 -121v-50z" />
    <glyph glyph-name="equal" unicode="=" horiz-adv-x="340" 
d="M34 401v41h272v-41h-272zM34 262v41h272v-41h-272z" />
    <glyph glyph-name="greater" unicode="&#x3e;" horiz-adv-x="340" 
d="M52 181v50l204 121l-204 121v50l248 -151v-40z" />
    <glyph glyph-name="question" unicode="?" horiz-adv-x="303" 
d="M108 183l-8 173l5 7q61 24 94 63t33 105v4q0 58 -33 93t-80 35q-45 0 -95 -28v43q47 26 98 26q66 0 110 -47t44 -118v-6q0 -134 -132 -197l-9 -153h-27zM95 0v82h60v-82h-60z" />
    <glyph glyph-name="at" unicode="@" horiz-adv-x="634" 
d="M299 -133q-117 0 -190.5 89.5t-73.5 256.5q0 131 37 242.5t111.5 182t171.5 70.5q115 0 179.5 -89.5t64.5 -226.5q0 -127 -43 -223t-109 -96q-40 0 -59 30t-13 78q-52 -111 -121 -111q-36 0 -60 35t-24 90q0 123 49.5 218t113.5 95q67 0 81 -99l16 82l39 -8l-50 -257
q-6 -32 -6 -67q0 -55 37 -55q51 0 86 92t35 194q0 126 -56.5 209t-159.5 83q-92 0 -161 -71.5t-101 -175.5t-32 -218q0 -157 65.5 -240.5t172.5 -83.5q78 0 151 45l14 -22q-43 -26 -79 -37.5t-86 -11.5zM264 109q24 0 51 27q33 33 58.5 94.5t25.5 129.5q0 48 -18 78.5
t-45 30.5q-25 0 -48 -23q-36 -36 -56.5 -106t-20.5 -143q0 -42 14.5 -65t38.5 -23z" />
    <glyph glyph-name="A" unicode="A" horiz-adv-x="410" 
d="M28 0l153 703h48l153 -703h-46l-41 196h-182l-41 -196h-44zM121 236h166l-83 398z" />
    <glyph glyph-name="B" unicode="B" horiz-adv-x="373" 
d="M56 0v700h90q87 0 140 -53q47 -47 47 -122v-2q0 -134 -128 -169q64 -15 100.5 -58t36.5 -113v-2q0 -85 -58.5 -133t-156.5 -48h-71zM289 521v2q0 63 -39.5 100t-105.5 37h-44v-287h31q76 0 117 39t41 109zM298 184q0 72 -42.5 110.5t-120.5 38.5h-35v-293h28
q80 0 125 36.5t45 105.5v2z" />
    <glyph glyph-name="C" unicode="C" horiz-adv-x="329" 
d="M222 -6q-81 0 -133 89.5t-52 257.5v18q0 167 53.5 257t133.5 90q36 0 68 -17v-47q-38 22 -68 22q-61 0 -102 -80.5t-41 -224.5v-18q0 -144 41 -224.5t102 -80.5q35 0 71 23v-45q-33 -20 -73 -20z" />
    <glyph glyph-name="D" unicode="D" horiz-adv-x="400" 
d="M56 0v700h83q101 0 162.5 -89t61.5 -252v-18q0 -163 -61.5 -252t-162.5 -89h-83zM138 660h-38v-620h40q81 0 130 78t49 223v18q0 144 -50 222.5t-131 78.5z" />
    <glyph glyph-name="E" unicode="E" horiz-adv-x="325" 
d="M56 0v700h238v-40h-194v-287h177v-40h-177v-293h197v-40h-241z" />
    <glyph glyph-name="F" unicode="F" horiz-adv-x="306" 
d="M56 0v700h229v-40h-185v-297h168v-40h-168v-323h-44z" />
    <glyph glyph-name="G" unicode="G" horiz-adv-x="393" 
d="M247 -7q-91 0 -150.5 91t-59.5 257v18q0 165 61.5 256t150.5 91q46 0 85 -22v-48q-45 28 -86 28q-69 0 -118 -80t-49 -225v-18q0 -148 47.5 -228t121.5 -80q26 0 48 9v276h-104v40h146v-341q-45 -24 -93 -24z" />
    <glyph glyph-name="H" unicode="H" horiz-adv-x="416" 
d="M56 0v700h44v-328h216v328h44v-700h-44v332h-216v-332h-44z" />
    <glyph glyph-name="I" unicode="I" horiz-adv-x="170" 
d="M63 0v700h44v-700h-44z" />
    <glyph glyph-name="J" unicode="J" horiz-adv-x="236" 
d="M71 -5q-27 0 -51 8v41q29 -8 50 -8q32 0 51 21t19 62v581h44v-582q0 -59 -34 -93q-30 -30 -79 -30z" />
    <glyph glyph-name="K" unicode="K" horiz-adv-x="370" 
d="M56 0v700h44v-397l194 397h50l-161 -316l181 -384h-48l-158 336l-58 -114v-222h-44z" />
    <glyph glyph-name="L" unicode="L" horiz-adv-x="284" 
d="M56 0v700h44v-660h176v-40h-220z" />
    <glyph glyph-name="M" unicode="M" horiz-adv-x="478" 
d="M56 0v700h54l129 -391l130 391h53v-700h-42v603l-139 -407h-4l-139 407v-603h-42z" />
    <glyph glyph-name="N" unicode="N" horiz-adv-x="420" 
d="M56 0v700h48l218 -588v588h42v-700h-43l-223 602v-602h-42z" />
    <glyph glyph-name="O" unicode="O" horiz-adv-x="406" 
d="M203 -8q-74 0 -120 91t-46 259v16q0 168 46 259t120 91t120 -91t46 -259v-16q0 -168 -46 -259t-120 -91zM203 32q54 0 88 81t34 229v16q0 148 -34 229t-88 81t-88 -81t-34 -229v-16q0 -148 34 -229t88 -81z" />
    <glyph glyph-name="P" unicode="P" horiz-adv-x="364" 
d="M56 0v700h87q93 0 147 -59t54 -159v-2q0 -102 -54 -162t-151 -60h-39v-258h-44zM100 297h43q75 0 116 48t41 134v2q0 85 -42.5 132t-116.5 47h-41v-363z" />
    <glyph glyph-name="Q" unicode="Q" horiz-adv-x="406" 
d="M379 6l-31 -26l-51 65q-41 -53 -94 -53q-74 0 -120 91t-46 259v16q0 168 46 259t120 91t120 -91t46 -259v-16q0 -167 -51 -264zM203 32q41 0 70 42l-72 86l31 26l60 -76q33 82 33 232v16q0 148 -34 229t-88 81t-88 -81t-34 -229v-16q0 -148 34 -229t88 -81z" />
    <glyph glyph-name="R" unicode="R" horiz-adv-x="383" 
d="M56 0v700h87q92 0 146 -54q55 -55 55 -152v-2q0 -72 -32 -123t-89 -73l134 -296h-52l-127 285q-18 -3 -39 -3h-39v-282h-44zM100 321h43q73 0 115 44.5t42 125.5v2q0 82 -42.5 124.5t-116.5 42.5h-41v-339z" />
    <glyph glyph-name="S" unicode="S" horiz-adv-x="333" 
d="M155 -8q-56 0 -121 37v50q70 -45 122 -45q44 0 70.5 27.5t26.5 73.5v2q0 42 -19 80.5t-79 118.5q-72 97 -94 138.5t-22 88.5v2q0 62 39.5 102.5t97.5 40.5q53 0 106 -31v-50q-57 39 -107 39q-41 0 -66.5 -27.5t-25.5 -70.5v-2q0 -39 20 -76.5t79 -112.5
q66 -83 90.5 -132.5t24.5 -104.5v-2q0 -66 -40 -106t-102 -40z" />
    <glyph glyph-name="T" unicode="T" horiz-adv-x="296" 
d="M126 0v660h-114v40h272v-40h-114v-660h-44z" />
    <glyph glyph-name="U" unicode="U" horiz-adv-x="407" 
d="M203 -9q-70 0 -110.5 51t-40.5 138v520h44v-521q0 -71 28.5 -109.5t78.5 -38.5t79 39t29 109v521h44v-520q0 -87 -41 -138t-111 -51z" />
    <glyph glyph-name="V" unicode="V" horiz-adv-x="392" 
d="M174 -5l-146 705h46l123 -622l123 622h44l-146 -705h-44z" />
    <glyph glyph-name="W" unicode="W" horiz-adv-x="611" 
d="M151 -5l-121 705h47l95 -611l114 611h41l113 -611l96 611h45l-121 -705h-41l-113 611l-114 -611h-41z" />
    <glyph glyph-name="X" unicode="X" horiz-adv-x="357" 
d="M277 700h44l-117 -327l133 -373h-45l-115 325l-113 -325h-44l132 369l-119 331h45l99 -283z" />
    <glyph glyph-name="Y" unicode="Y" horiz-adv-x="352" 
d="M154 0v302l-146 398h48l121 -343l122 343h45l-146 -398v-302h-44z" />
    <glyph glyph-name="Z" unicode="Z" horiz-adv-x="336" 
d="M30 0v26l232 637h-221v37h267v-25l-232 -637h232v-38h-278z" />
    <glyph glyph-name="bracketleft" unicode="[" horiz-adv-x="253" 
d="M78 -130v830h139v-33h-97v-764h97v-33h-139z" />
    <glyph glyph-name="backslash" unicode="\" horiz-adv-x="260" 
d="M226 -98l-218 866h38l218 -866h-38z" />
    <glyph glyph-name="bracketright" unicode="]" horiz-adv-x="253" 
d="M36 -130v33h97v764h-97v33h139v-830h-139z" />
    <glyph glyph-name="asciicircum" unicode="^" horiz-adv-x="300" 
d="M63 533l70 153h34l70 -153h-40l-48 104l-48 -104h-38z" />
    <glyph glyph-name="underscore" unicode="_" horiz-adv-x="452" 
d="M-2 -158v35h456v-35h-456z" />
    <glyph glyph-name="grave" unicode="`" horiz-adv-x="500" 
d="M279 576l-82 100l47 25l64 -125h-29z" />
    <glyph glyph-name="a" unicode="a" horiz-adv-x="345" 
d="M148 -9q-53 0 -86.5 46t-33.5 116v8q0 75 36.5 121.5t101.5 46.5q44 0 88 -20v66q0 116 -100 116q-53 0 -97 -24v41q48 23 99 23q64 0 102 -38t38 -113v-380h-42v76q-34 -85 -106 -85zM154 28q45 0 72.5 40.5t27.5 95.5v105q-45 21 -86 21q-47 0 -72.5 -35t-25.5 -92v-8
q0 -56 22 -91.5t62 -35.5z" />
    <glyph glyph-name="b" unicode="b" horiz-adv-x="376" 
d="M205 -8q-72 0 -110 109v-101h-42v707h42v-283q38 109 110 109q57 0 97 -70t40 -191v-19q0 -120 -40 -190.5t-97 -70.5zM200 29q42 0 71 60.5t29 164.5v17q0 104 -29 164.5t-71 60.5q-43 0 -75 -60t-32 -161v-25q0 -101 32 -161t75 -60z" />
    <glyph glyph-name="c" unicode="c" horiz-adv-x="281" 
d="M192 -7q-67 0 -113.5 67t-46.5 196v10q0 128 47 197t113 69q36 0 63 -18v-46q-31 24 -64 24q-46 0 -81.5 -58t-35.5 -166v-14q0 -110 35.5 -165.5t85.5 -55.5q31 0 60 24v-44q-28 -20 -63 -20z" />
    <glyph glyph-name="d" unicode="d" horiz-adv-x="376" 
d="M171 -8q-57 0 -97 70t-40 191v19q0 120 40 190.5t97 70.5q72 0 110 -109v283h42v-707h-42v101q-38 -109 -110 -109zM176 29q43 0 75 60t32 161v25q0 101 -32 161t-75 60q-42 0 -71 -60.5t-29 -164.5v-17q0 -104 29 -164.5t71 -60.5z" />
    <glyph glyph-name="e" unicode="e" horiz-adv-x="348" 
d="M199 -7q-70 0 -118.5 68t-48.5 192v9q0 130 41.5 200.5t102.5 70.5q60 0 98.5 -68.5t38.5 -188.5v-31h-239q1 -102 38 -157t93 -55q45 0 91 31l5 -43q-49 -28 -102 -28zM74 282h198q0 91 -27 151.5t-69 60.5q-43 0 -71 -55.5t-31 -156.5z" />
    <glyph glyph-name="f" unicode="f" horiz-adv-x="214" 
d="M74 0v486h-54v39h54v61q0 66 31 97q26 26 71 26q15 0 31 -4v-41q-16 4 -30 4q-61 0 -61 -83v-60h86v-39h-86v-486h-42z" />
    <glyph glyph-name="g" unicode="g" horiz-adv-x="376" 
d="M171 -132q-57 0 -115 21v43q63 -25 117 -25q108 0 108 106v124q-38 -109 -110 -109q-56 0 -96.5 66.5t-40.5 181.5v9q0 114 40.5 181t96.5 67q72 0 110 -109v101h42v-510q0 -71 -37 -108q-39 -39 -115 -39zM176 65q41 0 74 58t33 153v9q0 95 -33 153t-74 58t-70.5 -57
t-29.5 -155v-7q0 -98 29.5 -155t70.5 -57z" />
    <glyph glyph-name="h" unicode="h" horiz-adv-x="372" 
d="M53 0v707h42v-259q35 85 108 85q54 0 87 -43.5t33 -122.5v-367h-42v363q0 65 -22.5 99.5t-63.5 34.5q-43 0 -71.5 -39.5t-28.5 -102.5v-355h-42z" />
    <glyph glyph-name="i" unicode="i" horiz-adv-x="160" 
d="M57 637v70h46v-70h-46zM59 0v525h42v-525h-42z" />
    <glyph glyph-name="j" unicode="j" horiz-adv-x="167" 
d="M64 637v70h46v-70h-46zM9 -132q-17 0 -29 5v39q12 -4 25 -4q36 0 48.5 23.5t12.5 69.5v524h42v-539q0 -51 -22.5 -84.5t-76.5 -33.5z" />
    <glyph glyph-name="k" unicode="k" horiz-adv-x="328" 
d="M53 0v707h42v-473l151 291h47l-117 -211l128 -314h-46l-107 270l-56 -101v-169h-42z" />
    <glyph glyph-name="l" unicode="l" horiz-adv-x="160" 
d="M59 0v707h42v-707h-42z" />
    <glyph glyph-name="m" unicode="m" horiz-adv-x="588" 
d="M53 0v525h42v-77q35 85 105 85q74 0 103 -89q39 89 116 89q55 0 87.5 -42.5t32.5 -121.5v-369h-42v365q0 64 -21.5 98t-61.5 34q-41 0 -69 -38.5t-28 -101.5v-357h-42v365q0 64 -21.5 98t-61.5 34q-41 0 -69 -38.5t-28 -101.5v-357h-42z" />
    <glyph glyph-name="n" unicode="n" horiz-adv-x="372" 
d="M53 0v525h42v-77q35 85 108 85q54 0 87 -43.5t33 -122.5v-367h-42v363q0 65 -22.5 99.5t-63.5 34.5q-43 0 -71.5 -39.5t-28.5 -102.5v-355h-42z" />
    <glyph glyph-name="o" unicode="o" horiz-adv-x="362" 
d="M181 -8q-62 0 -105.5 73t-43.5 193v9q0 120 44 193t106 73t105 -73t43 -193v-9q0 -120 -43.5 -193t-105.5 -73zM181 31q45 0 76 63t31 164v9q0 101 -31 164t-76 63t-76 -63t-31 -164v-9q0 -101 31 -164t76 -63z" />
    <glyph glyph-name="p" unicode="p" horiz-adv-x="376" 
d="M53 -130v655h42v-101q38 109 110 109q57 0 97 -70t40 -191v-19q0 -120 -40 -190.5t-97 -70.5q-72 0 -110 109v-231h-42zM200 29q42 0 71 60.5t29 164.5v17q0 104 -29 164.5t-71 60.5q-43 0 -75 -60t-32 -161v-25q0 -101 32 -161t75 -60z" />
    <glyph glyph-name="q" unicode="q" horiz-adv-x="376" 
d="M281 -130v231q-38 -109 -110 -109q-57 0 -97 70t-40 191v19q0 120 40 190.5t97 70.5q72 0 110 -109v101h42v-655h-42zM176 29q43 0 75 60t32 161v25q0 101 -32 161t-75 60q-42 0 -71 -60.5t-29 -164.5v-17q0 -104 29 -164.5t71 -60.5z" />
    <glyph glyph-name="r" unicode="r" horiz-adv-x="234" 
d="M53 0v525h42v-77q16 39 47.5 62.5t75.5 20.5v-45h-2q-53 0 -87 -34t-34 -100v-352h-42z" />
    <glyph glyph-name="s" unicode="s" horiz-adv-x="279" 
d="M130 -6q-52 0 -105 25v44q57 -30 107 -30q34 0 57 21t23 57v2q0 54 -83 133q-58 55 -80.5 91.5t-22.5 76.5v2q0 53 35 84t84 31q47 0 87 -17v-44q-44 22 -89 22q-33 0 -54 -20t-21 -54v-2q0 -28 17.5 -55t65.5 -74q57 -56 80 -93.5t23 -78.5v-2q0 -53 -37 -86t-87 -33z
" />
    <glyph glyph-name="t" unicode="t" horiz-adv-x="225" 
d="M162 -4q-93 0 -93 92v398h-50v39h50v148h42v-148h85v-39h-85v-392q0 -33 14 -45.5t41 -12.5q19 0 32 5v-39q-15 -6 -36 -6z" />
    <glyph glyph-name="u" unicode="u" horiz-adv-x="372" 
d="M169 -8q-54 0 -87 43.5t-33 122.5v367h42v-363q0 -65 22.5 -99.5t63.5 -34.5q43 0 71.5 39.5t28.5 102.5v355h42v-525h-42v77q-35 -85 -108 -85z" />
    <glyph glyph-name="v" unicode="v" horiz-adv-x="348" 
d="M156 -3l-129 528h43l104 -454l106 454h41l-129 -528h-36z" />
    <glyph glyph-name="w" unicode="w" horiz-adv-x="533" 
d="M141 -3l-109 528h44l84 -455l89 455h38l87 -455l86 455h41l-109 -528h-38l-88 442l-87 -442h-38z" />
    <glyph glyph-name="x" unicode="x" horiz-adv-x="337" 
d="M79 525l89 -216l89 216h42l-108 -252l117 -273h-43l-98 235l-97 -235h-42l116 271l-108 254h43z" />
    <glyph glyph-name="y" unicode="y" horiz-adv-x="346" 
d="M173 77l104 448h42l-159 -655h-40l33 135l-127 520h43z" />
    <glyph glyph-name="z" unicode="z" horiz-adv-x="290" 
d="M26 0v25l191 463h-181v37h227v-25l-191 -463h186v-37h-232z" />
    <glyph glyph-name="braceleft" unicode="{" horiz-adv-x="266" 
d="M244 -136q-143 7 -143 128q0 32 20 90.5t20 95.5t-28 66.5t-85 29.5h-9v30h9q57 0 85 30t28 67q0 35 -20 96t-20 100q0 46 35 81t108 38v-31q-49 -1 -75 -26.5t-26 -65.5q0 -35 20 -92t20 -92q0 -43 -22.5 -77.5t-72.5 -42.5q50 -10 72.5 -43t22.5 -76q0 -34 -20 -91.5
t-20 -92.5q0 -40 26 -65t75 -26v-31z" />
    <glyph glyph-name="bar" unicode="|" horiz-adv-x="216" 
d="M90 -98v866h36v-866h-36z" />
    <glyph glyph-name="braceright" unicode="}" horiz-adv-x="266" 
d="M22 -136v31q49 1 75 26.5t26 65.5q0 35 -20 92t-20 92q0 43 22.5 77.5t72.5 42.5q-50 10 -72.5 43t-22.5 76q0 34 20 92t20 92q0 40 -26 65t-75 26v31q143 -7 143 -128q0 -32 -20 -90.5t-20 -95.5t28 -66.5t85 -29.5h9v-30h-9q-57 0 -85 -30t-28 -67q0 -35 20 -96
t20 -100q0 -46 -35 -81t-108 -38z" />
    <glyph glyph-name="asciitilde" unicode="~" horiz-adv-x="294" 
d="M191 250q-22 0 -50 26q-24 23 -34 23q-16 0 -28 -45l-30 8q18 75 54 75q22 0 50 -26q24 -23 34 -23q16 0 28 45l30 -8q-18 -75 -54 -75z" />
    <glyph glyph-name="uni00A0" unicode="&#xa0;" horiz-adv-x="165" 
 />
    <glyph glyph-name="exclamdown" unicode="&#xa1;" horiz-adv-x="192" 
d="M66 618v82h60v-82h-60zM70 0v70l15 447h22l15 -447v-70h-52z" />
    <glyph glyph-name="cent" unicode="&#xa2;" horiz-adv-x="290" 
d="M187 703v-83q36 -1 71 -22v-43q-37 21 -71 24v-459q36 1 71 25v-42q-32 -21 -71 -22v-86h-34v88q-118 25 -118 261v10q0 236 118 263v86h34zM77 342q0 -189 76 -217v449q-76 -29 -76 -218v-14z" />
    <glyph glyph-name="sterling" unicode="&#xa3;" horiz-adv-x="322" 
d="M32 0v21l50 18v288h-54v37h54v172q0 86 47 133q38 38 95 38q32 0 59 -11v-42q-28 13 -57 13q-41 0 -68 -27q-33 -33 -33 -105v-171h128v-37h-128v-288h185v-39h-278z" />
    <glyph glyph-name="yen" unicode="&#xa5;" horiz-adv-x="342" 
d="M53 275v35h90l-138 390h48l119 -354l119 354h46l-139 -390h91v-35h-97v-99h97v-35h-97v-141h-42v141h-97v35h97v99h-97z" />
    <glyph glyph-name="section" unicode="&#xa7;" horiz-adv-x="360" 
d="M224 210q34 -25 47.5 -48t13.5 -55v-3q0 -47 -35 -79t-90 -32q-46 0 -84 17v44q43 -22 87 -22q36 0 58 20t22 51v3q0 31 -21.5 53.5t-79.5 56.5q-69 40 -94.5 70t-25.5 70v2q0 83 114 132q-34 25 -47.5 48t-13.5 55v3q0 47 35 79t90 32q46 0 84 -17v-44q-43 22 -87 22
q-36 0 -58 -20t-22 -51v-3q0 -31 21.5 -53.5t79.5 -56.5q69 -40 94.5 -70t25.5 -70v-2q0 -81 -114 -132zM192 232q104 43 104 108v2q0 28 -21 50.5t-75 55.5q-3 2 -14.5 9t-17.5 11q-104 -43 -104 -108v-2q0 -28 21 -50.5t75 -55.5q3 -2 14.5 -9t17.5 -11z" />
    <glyph glyph-name="dieresis" unicode="&#xa8;" horiz-adv-x="500" 
d="M277 586v67h46v-67h-46zM177 586v67h46v-67h-46z" />
    <glyph glyph-name="copyright" unicode="&#xa9;" horiz-adv-x="523" 
d="M261 -10q-106 0 -171.5 99t-65.5 244v35q0 146 65.5 244.5t171.5 98.5t172 -99t66 -244v-35q0 -145 -66 -244t-172 -99zM261 15q97 0 154.5 92t57.5 226v35q0 134 -57.5 226t-154.5 92t-154 -92t-57 -226v-35q0 -134 57 -226t154 -92zM270 152q-46 0 -75.5 49t-29.5 144
v11q0 94 30.5 143t77.5 49q24 0 43 -11v-38q-24 14 -41 14q-31 0 -52.5 -40t-21.5 -115v-16q0 -76 21 -115.5t53 -39.5q19 0 42 15v-37q-22 -13 -47 -13z" />
    <glyph glyph-name="ordfeminine" unicode="&#xaa;" horiz-adv-x="250" 
d="M109 403q-28 0 -47 25t-19 64v6q0 42 20.5 67t54.5 25q23 0 43 -10v31q0 27 -13 42.5t-36 15.5q-26 0 -53 -14v33q25 14 56 14q43 0 63 -28q17 -22 17 -60v-206h-34v34q-19 -39 -52 -39zM43 322v28h165v-28h-165zM114 433q20 0 33.5 21t13.5 50v47q-22 9 -40 9
q-22 0 -33.5 -17t-11.5 -44v-5q0 -61 38 -61z" />
    <glyph glyph-name="guillemotleft" unicode="&#xab;" horiz-adv-x="339" 
d="M153 43l-121 208v8l121 208l30 -16l-106 -195l106 -197zM275 43l-121 208v8l121 208l30 -16l-106 -195l106 -197z" />
    <glyph glyph-name="registered" unicode="&#xae;" horiz-adv-x="312" 
d="M156 355q-56 0 -91.5 49t-35.5 123v18q0 74 35.5 123t91.5 49t91.5 -49t35.5 -123v-18q0 -74 -35.5 -123t-91.5 -49zM156 373q49 0 78.5 44t29.5 110v18q0 66 -29.5 110t-78.5 44t-78.5 -44t-29.5 -110v-18q0 -66 29.5 -110t78.5 -44zM114 444v191h36q28 0 43.5 -15.5
t15.5 -42.5v-1q0 -38 -30 -53l36 -79h-24l-33 73q-6 -1 -12 -1h-10v-72h-22zM136 536h14q38 0 38 40q0 18 -10.5 28t-27.5 10h-14v-78z" />
    <glyph glyph-name="macron" unicode="&#xaf;" horiz-adv-x="500" 
d="M160 588v39h180v-39h-180z" />
    <glyph glyph-name="degree" unicode="&#xb0;" horiz-adv-x="248" 
d="M124 402q-43 0 -71 40t-28 109v8q0 69 28 109t71 40t71 -40t28 -109v-8q0 -69 -28 -109t-71 -40zM124 437q29 0 46 31t17 83v8q0 52 -17 83t-46 31t-46 -31t-17 -83v-8q0 -52 17 -83t46 -31z" />
    <glyph glyph-name="plusminus" unicode="&#xb1;" horiz-adv-x="340" 
d="M311 332h-121v-125h-40v125h-121v40h121v125h40v-125h121v-40zM311 97h-282v41h282v-41z" />
    <glyph glyph-name="two.sup" unicode="&#xb2;" 
d="M24 466v22l114 161q33 49 33 81q0 25 -16 38.5t-39 13.5q-43 0 -80 -43v41q34 36 83 36q38 0 63 -23t25 -62q0 -43 -40 -99l-92 -132h136v-34h-187z" />
    <glyph glyph-name="three.sup" unicode="&#xb3;" 
d="M101 462q-40 0 -70 24v39q30 -30 72 -30q29 0 49 16.5t20 50.5q0 67 -102 70h-1v24l91 122h-129v34h175v-25l-95 -126q97 -14 97 -98q0 -47 -30.5 -74t-76.5 -27z" />
    <glyph glyph-name="acute" unicode="&#xb4;" horiz-adv-x="500" 
d="M192 576l64 125l47 -25l-82 -100h-29z" />
    <glyph glyph-name="paragraph" unicode="&#xb6;" horiz-adv-x="325" 
d="M225 0v258q-97 0 -151 60t-54 162v2q0 100 54 159t147 59h48v-700h-44z" />
    <glyph glyph-name="periodcentered" unicode="&#xb7;" horiz-adv-x="152" 
d="M44 255v85h64v-85h-64z" />
    <glyph glyph-name="cedilla" unicode="&#xb8;" horiz-adv-x="500" 
d="M234 -110l-46 19l59 101h31z" />
    <glyph glyph-name="one.sup" unicode="&#xb9;" horiz-adv-x="195" 
d="M124 466h-35v304l-67 -37v36l70 43h32v-346z" />
    <glyph glyph-name="ordmasculine" unicode="&#xba;" horiz-adv-x="250" 
d="M125 403q-39 0 -61.5 40t-22.5 105v10q0 65 22.5 105t61.5 40t61.5 -40t22.5 -105v-10q0 -65 -22.5 -105t-61.5 -40zM47 322v28h158v-28h-158zM125 435q25 0 37.5 32t12.5 81v10q0 49 -12.5 81t-37.5 32t-37.5 -32t-12.5 -81v-10q0 -49 12.5 -81t37.5 -32z" />
    <glyph glyph-name="guillemotright" unicode="&#xbb;" horiz-adv-x="339" 
d="M186 467l121 -208v-8l-121 -208l-30 16l106 195l-106 197zM64 467l121 -208v-8l-121 -208l-30 16l106 195l-106 197z" />
    <glyph glyph-name="onequarter" unicode="&#xbc;" horiz-adv-x="495" 
d="M127 354h-35v304l-67 -37v36l70 43h32v-346zM82 0l145 358l138 343h35l-145 -358l-139 -343h-34zM432 72v-72h-32v72h-135v25l127 251h40v-246h35v-30h-35zM400 102v190h-4l-94 -190h98z" />
    <glyph glyph-name="onehalf" unicode="&#xbd;" horiz-adv-x="495" 
d="M274 0v22l114 161q33 49 33 81q0 25 -16 38.5t-39 13.5q-43 0 -80 -43v41q34 36 83 36q38 0 63 -23t25 -62q0 -43 -40 -99l-92 -132h136v-34h-187zM53 0l145 358l138 343h35l-145 -358l-139 -343h-34zM127 354h-35v304l-67 -37v36l70 43h32v-346z" />
    <glyph glyph-name="threequarters" unicode="&#xbe;" horiz-adv-x="540" 
d="M481 72v-72h-32v72h-135v25l127 251h40v-246h35v-30h-35zM449 102v190h-4l-94 -190h98zM130 0l145 358l138 343h35l-145 -358l-139 -343h-34zM102 350q-40 0 -70 24v39q30 -30 72 -30q29 0 49 16.5t20 50.5q0 67 -102 70h-1v24l91 122h-129v34h175v-25l-95 -126
q97 -14 97 -98q0 -47 -30.5 -74t-76.5 -27z" />
    <glyph glyph-name="questiondown" unicode="&#xbf;" horiz-adv-x="303" 
d="M148 618v82h60v-82h-60zM181 -4q-66 0 -110 47t-44 118v6q0 134 132 197l9 153h27l8 -173l-5 -7q-61 -24 -94 -63t-33 -105v-4q0 -58 32.5 -93t80.5 -35q45 0 95 28v-43q-47 -26 -98 -26z" />
    <glyph glyph-name="Agrave" unicode="&#xc0;" horiz-adv-x="410" 
d="M28 0l153 703h48l153 -703h-46l-41 196h-182l-41 -196h-44zM121 236h166l-83 398zM223 745h-32l-78 82l48 22z" />
    <glyph glyph-name="Aacute" unicode="&#xc1;" horiz-adv-x="410" 
d="M28 0l153 703h48l153 -703h-46l-41 196h-182l-41 -196h-44zM121 236h166l-83 398zM187 745l62 104l48 -22l-78 -82h-32z" />
    <glyph glyph-name="Acircumflex" unicode="&#xc2;" horiz-adv-x="410" 
d="M28 0l153 703h48l153 -703h-46l-41 196h-182l-41 -196h-44zM121 236h166l-83 398zM113 745l72 97h40l72 -97h-42l-51 58l-51 -58h-40z" />
    <glyph glyph-name="Atilde" unicode="&#xc3;" horiz-adv-x="410" 
d="M28 0l153 703h48l153 -703h-46l-41 196h-182l-41 -196h-44zM121 236h166l-83 398zM136 751l-32 8q22 65 57 65q21 0 52 -21q28 -18 36 -18q16 0 29 35l32 -8q-22 -65 -57 -65q-21 0 -52 21q-28 18 -36 18q-16 0 -29 -35z" />
    <glyph glyph-name="Adieresis" unicode="&#xc4;" horiz-adv-x="410" 
d="M28 0l153 703h48l153 -703h-46l-41 196h-182l-41 -196h-44zM121 236h166l-83 398zM232 755v63h50v-63h-50zM128 755v63h50v-63h-50z" />
    <glyph glyph-name="Aring" unicode="&#xc5;" horiz-adv-x="410" 
d="M28 0l145 666q-22 8 -35 26.5t-13 42.5q0 31 23.5 52.5t56.5 21.5t55.5 -21.5t22.5 -52.5q0 -48 -47 -68l146 -667h-46l-41 196h-182l-41 -196h-44zM121 236h166l-83 398zM204 688q21 0 34.5 13.5t13.5 33.5t-13.5 33.5t-34.5 13.5t-34.5 -13.5t-13.5 -33.5t13.5 -33.5
t34.5 -13.5z" />
    <glyph glyph-name="AE" unicode="&#xc6;" horiz-adv-x="509" 
d="M3 0l197 700h278v-40h-194v-287h177v-40h-177v-293h197v-40h-241v196h-139l-55 -196h-43zM112 236h128v424h-10z" />
    <glyph glyph-name="Ccedilla" unicode="&#xc7;" horiz-adv-x="329" 
d="M179 -110l-46 19l52 90q-67 19 -107.5 106.5t-40.5 235.5v18q0 167 53.5 257t133.5 90q36 0 68 -17v-47q-38 22 -68 22q-61 0 -102 -80.5t-41 -224.5v-18q0 -144 41 -224.5t102 -80.5q35 0 71 23v-45q-33 -20 -73 -20h-5z" />
    <glyph glyph-name="Egrave" unicode="&#xc8;" horiz-adv-x="325" 
d="M56 0v700h238v-40h-194v-287h177v-40h-177v-293h197v-40h-241zM195 740h-32l-78 82l48 22z" />
    <glyph glyph-name="Eacute" unicode="&#xc9;" horiz-adv-x="325" 
d="M56 0v700h238v-40h-194v-287h177v-40h-177v-293h197v-40h-241zM159 740l62 104l48 -22l-78 -82h-32z" />
    <glyph glyph-name="Ecircumflex" unicode="&#xca;" horiz-adv-x="325" 
d="M56 0v700h238v-40h-194v-287h177v-40h-177v-293h197v-40h-241zM85 745l72 97h40l72 -97h-42l-51 58l-51 -58h-40z" />
    <glyph glyph-name="Edieresis" unicode="&#xcb;" horiz-adv-x="325" 
d="M56 0v700h238v-40h-194v-287h177v-40h-177v-293h197v-40h-241zM204 750v63h50v-63h-50zM100 750v63h50v-63h-50z" />
    <glyph glyph-name="Igrave" unicode="&#xcc;" horiz-adv-x="170" 
d="M63 0v700h44v-700h-44zM103 740h-32l-78 82l48 22z" />
    <glyph glyph-name="Iacute" unicode="&#xcd;" horiz-adv-x="170" 
d="M63 0v700h44v-700h-44zM67 740l62 104l48 -22l-78 -82h-32z" />
    <glyph glyph-name="Icircumflex" unicode="&#xce;" horiz-adv-x="170" 
d="M63 0v700h44v-700h-44zM-7 745l72 97h40l72 -97h-42l-51 58l-51 -58h-40z" />
    <glyph glyph-name="Idieresis" unicode="&#xcf;" horiz-adv-x="170" 
d="M63 0v700h44v-700h-44zM112 750v63h50v-63h-50zM8 750v63h50v-63h-50z" />
    <glyph glyph-name="Eth" unicode="&#xd0;" horiz-adv-x="406" 
d="M62 0v333h-55v38h55v329h83q101 0 162.5 -89t61.5 -252v-18q0 -163 -61.5 -252t-162.5 -89h-83zM194 333h-88v-293h40q81 0 130 78t49 223v18q0 144 -50 222.5t-131 78.5h-38v-289h88v-38z" />
    <glyph glyph-name="Ntilde" unicode="&#xd1;" horiz-adv-x="420" 
d="M56 0v700h48l218 -588v588h42v-700h-43l-223 602v-602h-42zM141 741l-32 8q22 65 57 65q21 0 52 -21q28 -18 36 -18q16 0 29 35l32 -8q-22 -65 -57 -65q-21 0 -52 21q-28 18 -36 18q-16 0 -29 -35z" />
    <glyph glyph-name="Ograve" unicode="&#xd2;" horiz-adv-x="406" 
d="M203 -8q-74 0 -120 91t-46 259v16q0 168 46 259t120 91t120 -91t46 -259v-16q0 -168 -46 -259t-120 -91zM203 32q54 0 88 81t34 229v16q0 148 -34 229t-88 81t-88 -81t-34 -229v-16q0 -148 34 -229t88 -81zM221 745h-32l-78 82l48 22z" />
    <glyph glyph-name="Oacute" unicode="&#xd3;" horiz-adv-x="406" 
d="M203 -8q-74 0 -120 91t-46 259v16q0 168 46 259t120 91t120 -91t46 -259v-16q0 -168 -46 -259t-120 -91zM203 32q54 0 88 81t34 229v16q0 148 -34 229t-88 81t-88 -81t-34 -229v-16q0 -148 34 -229t88 -81zM185 745l62 104l48 -22l-78 -82h-32z" />
    <glyph glyph-name="Ocircumflex" unicode="&#xd4;" horiz-adv-x="406" 
d="M203 -8q-74 0 -120 91t-46 259v16q0 168 46 259t120 91t120 -91t46 -259v-16q0 -168 -46 -259t-120 -91zM203 32q54 0 88 81t34 229v16q0 148 -34 229t-88 81t-88 -81t-34 -229v-16q0 -148 34 -229t88 -81zM111 750l72 97h40l72 -97h-42l-51 58l-51 -58h-40z" />
    <glyph glyph-name="Otilde" unicode="&#xd5;" horiz-adv-x="406" 
d="M203 -8q-74 0 -120 91t-46 259v16q0 168 46 259t120 91t120 -91t46 -259v-16q0 -168 -46 -259t-120 -91zM203 32q54 0 88 81t34 229v16q0 148 -34 229t-88 81t-88 -81t-34 -229v-16q0 -148 34 -229t88 -81zM134 751l-32 8q22 65 57 65q21 0 52 -21q28 -18 36 -18
q16 0 29 35l32 -8q-22 -65 -57 -65q-21 0 -52 21q-28 18 -36 18q-16 0 -29 -35z" />
    <glyph glyph-name="Odieresis" unicode="&#xd6;" horiz-adv-x="406" 
d="M203 -8q-74 0 -120 91t-46 259v16q0 168 46 259t120 91t120 -91t46 -259v-16q0 -168 -46 -259t-120 -91zM203 32q54 0 88 81t34 229v16q0 148 -34 229t-88 81t-88 -81t-34 -229v-16q0 -148 34 -229t88 -81zM230 755v63h50v-63h-50zM126 755v63h50v-63h-50z" />
    <glyph glyph-name="multiply" unicode="&#xd7;" horiz-adv-x="340" 
d="M261 221l-91 102l-91 -102l-29 26l94 105l-94 105l29 26l91 -102l91 102l29 -26l-94 -105l94 -105z" />
    <glyph glyph-name="Oslash" unicode="&#xd8;" horiz-adv-x="406" 
d="M327 708h43l-42 -102q41 -91 41 -248v-16q0 -168 -46 -259t-120 -91q-59 0 -100 57l-24 -57h-43l42 102q-41 91 -41 248v16q0 168 46 259t120 91q60 0 100 -58zM80 342q0 -118 21 -193l185 452q-32 68 -83 68q-54 0 -88.5 -81.5t-34.5 -229.5v-16zM203 31q54 0 88.5 81.5
t34.5 229.5v16q0 111 -21 192l-185 -452q32 -67 83 -67z" />
    <glyph glyph-name="Ugrave" unicode="&#xd9;" horiz-adv-x="407" 
d="M203 -9q-70 0 -110.5 51t-40.5 138v520h44v-521q0 -71 28.5 -109.5t78.5 -38.5t79 39t29 109v521h44v-520q0 -87 -41 -138t-111 -51zM221 735h-32l-78 82l48 22z" />
    <glyph glyph-name="Uacute" unicode="&#xda;" horiz-adv-x="407" 
d="M203 -9q-70 0 -110.5 51t-40.5 138v520h44v-521q0 -71 28.5 -109.5t78.5 -38.5t79 39t29 109v521h44v-520q0 -87 -41 -138t-111 -51zM185 735l62 104l48 -22l-78 -82h-32z" />
    <glyph glyph-name="Ucircumflex" unicode="&#xdb;" horiz-adv-x="407" 
d="M203 -9q-70 0 -110.5 51t-40.5 138v520h44v-521q0 -71 28.5 -109.5t78.5 -38.5t79 39t29 109v521h44v-520q0 -87 -41 -138t-111 -51zM111 740l72 97h40l72 -97h-42l-51 58l-51 -58h-40z" />
    <glyph glyph-name="Udieresis" unicode="&#xdc;" horiz-adv-x="407" 
d="M203 -9q-70 0 -110.5 51t-40.5 138v520h44v-521q0 -71 28.5 -109.5t78.5 -38.5t79 39t29 109v521h44v-520q0 -87 -41 -138t-111 -51zM230 745v63h50v-63h-50zM126 745v63h50v-63h-50z" />
    <glyph glyph-name="Yacute" unicode="&#xdd;" horiz-adv-x="352" 
d="M154 0v302l-146 398h48l121 -343l122 343h45l-146 -398v-302h-44zM158 735l62 104l48 -22l-78 -82h-32z" />
    <glyph glyph-name="Thorn" unicode="&#xde;" horiz-adv-x="364" 
d="M56 0v700h44v-122h43q93 0 147 -59t54 -159v-2q0 -102 -54 -162t-151 -60h-39v-136h-44zM100 175h43q75 0 116 48t41 134v2q0 85 -42.5 132t-116.5 47h-41v-363z" />
    <glyph glyph-name="germandbls" unicode="&#xdf;" horiz-adv-x="364" 
d="M154 -2v36q69 4 104 44t35 105v3q0 134 -139 160v33q62 22 90 68.5t28 102.5v3q0 56 -24.5 86.5t-61.5 30.5q-42 0 -66.5 -38t-24.5 -103v-529h-42v526q0 86 36.5 135t97.5 49q55 0 91 -42t36 -112v-5q0 -66 -30 -113t-81 -70q132 -43 132 -178v-6q0 -83 -48 -133.5
t-133 -52.5z" />
    <glyph glyph-name="agrave" unicode="&#xe0;" horiz-adv-x="345" 
d="M148 -9q-53 0 -86.5 46t-33.5 116v8q0 75 36.5 121.5t101.5 46.5q44 0 88 -20v66q0 116 -100 116q-53 0 -97 -24v41q48 23 99 23q64 0 102 -38t38 -113v-380h-42v76q-34 -85 -106 -85zM154 28q45 0 72.5 40.5t27.5 95.5v105q-45 21 -86 21q-47 0 -72.5 -35t-25.5 -92v-8
q0 -56 22 -91.5t62 -35.5zM160 576l-82 100l47 25l64 -125h-29z" />
    <glyph glyph-name="aacute" unicode="&#xe1;" horiz-adv-x="345" 
d="M148 -9q-53 0 -86.5 46t-33.5 116v8q0 75 36.5 121.5t101.5 46.5q44 0 88 -20v66q0 116 -100 116q-53 0 -97 -24v41q48 23 99 23q64 0 102 -38t38 -113v-380h-42v76q-34 -85 -106 -85zM154 28q45 0 72.5 40.5t27.5 95.5v105q-45 21 -86 21q-47 0 -72.5 -35t-25.5 -92v-8
q0 -56 22 -91.5t62 -35.5zM153 576l64 125l47 -25l-82 -100h-29z" />
    <glyph glyph-name="acircumflex" unicode="&#xe2;" horiz-adv-x="345" 
d="M148 -9q-53 0 -86.5 46t-33.5 116v8q0 75 36.5 121.5t101.5 46.5q44 0 88 -20v66q0 116 -100 116q-53 0 -97 -24v41q48 23 99 23q64 0 102 -38t38 -113v-380h-42v76q-34 -85 -106 -85zM154 28q45 0 72.5 40.5t27.5 95.5v105q-45 21 -86 21q-47 0 -72.5 -35t-25.5 -92v-8
q0 -56 22 -91.5t62 -35.5zM87 581l67 122h34l67 -122h-37l-48 75l-48 -75h-35z" />
    <glyph glyph-name="atilde" unicode="&#xe3;" horiz-adv-x="345" 
d="M148 -9q-53 0 -86.5 46t-33.5 116v8q0 75 36.5 121.5t101.5 46.5q44 0 88 -20v66q0 116 -100 116q-53 0 -97 -24v41q48 23 99 23q64 0 102 -38t38 -113v-380h-42v76q-34 -85 -106 -85zM154 28q45 0 72.5 40.5t27.5 95.5v105q-45 21 -86 21q-47 0 -72.5 -35t-25.5 -92v-8
q0 -56 22 -91.5t62 -35.5zM217 578q-22 0 -50 26q-24 23 -34 23q-16 0 -28 -45l-30 8q18 75 54 75q22 0 50 -26q24 -23 34 -23q16 0 28 45l30 -8q-18 -75 -54 -75z" />
    <glyph glyph-name="adieresis" unicode="&#xe4;" horiz-adv-x="345" 
d="M148 -9q-53 0 -86.5 46t-33.5 116v8q0 75 36.5 121.5t101.5 46.5q44 0 88 -20v66q0 116 -100 116q-53 0 -97 -24v41q48 23 99 23q64 0 102 -38t38 -113v-380h-42v76q-34 -85 -106 -85zM154 28q45 0 72.5 40.5t27.5 95.5v105q-45 21 -86 21q-47 0 -72.5 -35t-25.5 -92v-8
q0 -56 22 -91.5t62 -35.5zM198 586v67h46v-67h-46zM98 586v67h46v-67h-46z" />
    <glyph glyph-name="aring" unicode="&#xe5;" horiz-adv-x="345" 
d="M148 -9q-53 0 -86.5 46t-33.5 116v8q0 75 36.5 121.5t101.5 46.5q44 0 88 -20v66q0 116 -100 116q-53 0 -97 -24v41q48 23 99 23q64 0 102 -38t38 -113v-380h-42v76q-34 -85 -106 -85zM154 28q45 0 72.5 40.5t27.5 95.5v105q-45 21 -86 21q-47 0 -72.5 -35t-25.5 -92v-8
q0 -56 22 -91.5t62 -35.5zM170 577q-33 0 -55.5 23t-22.5 56t23 56t57 23q33 0 55.5 -23t22.5 -56t-23 -56t-57 -23zM171 603q22 0 36 15t14 38t-14 38t-36 15t-36 -15t-14 -38t14 -38t36 -15z" />
    <glyph glyph-name="ae" unicode="&#xe6;" horiz-adv-x="564" 
d="M148 -9q-53 0 -86.5 46t-33.5 116v8q0 75 36.5 121.5t101.5 46.5q44 0 88 -20v66q0 116 -100 116q-53 0 -97 -24v41q48 23 99 23q101 0 127 -89q38 91 109 91q60 0 98.5 -68.5t38.5 -188.5v-31h-239q1 -102 38 -157t93 -55q45 0 91 31l5 -43q-49 -28 -102 -28
q-46 0 -83.5 30.5t-58.5 88.5q-16 -53 -47 -87t-78 -34zM290 282h198q0 91 -27 151.5t-69 60.5t-70.5 -55.5t-31.5 -156.5zM154 28q39 0 67 39t39 93q-11 57 -8 111q-48 19 -84 19q-47 0 -72.5 -35t-25.5 -92v-8q0 -56 22 -91.5t62 -35.5z" />
    <glyph glyph-name="ccedilla" unicode="&#xe7;" horiz-adv-x="281" 
d="M147 -110l-46 19l52 90q-53 18 -87 83t-34 174v10q0 128 47 197t113 69q36 0 63 -18v-46q-31 24 -64 24q-46 0 -81.5 -58t-35.5 -166v-14q0 -110 35.5 -165.5t85.5 -55.5q31 0 60 24v-44q-28 -20 -63 -20h-7z" />
    <glyph glyph-name="egrave" unicode="&#xe8;" horiz-adv-x="348" 
d="M199 -7q-70 0 -118.5 68t-48.5 192v9q0 130 41.5 200.5t102.5 70.5q60 0 98.5 -68.5t38.5 -188.5v-31h-239q1 -102 38 -157t93 -55q45 0 91 31l5 -43q-49 -28 -102 -28zM74 282h198q0 91 -27 151.5t-69 60.5q-43 0 -71 -55.5t-31 -156.5zM165 576l-82 100l47 25l64 -125
h-29z" />
    <glyph glyph-name="eacute" unicode="&#xe9;" horiz-adv-x="348" 
d="M199 -7q-70 0 -118.5 68t-48.5 192v9q0 130 41.5 200.5t102.5 70.5q60 0 98.5 -68.5t38.5 -188.5v-31h-239q1 -102 38 -157t93 -55q45 0 91 31l5 -43q-49 -28 -102 -28zM74 282h198q0 91 -27 151.5t-69 60.5q-43 0 -71 -55.5t-31 -156.5zM158 576l64 125l47 -25l-82 -100
h-29z" />
    <glyph glyph-name="ecircumflex" unicode="&#xea;" horiz-adv-x="348" 
d="M199 -7q-70 0 -118.5 68t-48.5 192v9q0 130 41.5 200.5t102.5 70.5q60 0 98.5 -68.5t38.5 -188.5v-31h-239q1 -102 38 -157t93 -55q45 0 91 31l5 -43q-49 -28 -102 -28zM74 282h198q0 91 -27 151.5t-69 60.5q-43 0 -71 -55.5t-31 -156.5zM92 581l67 122h34l67 -122h-37
l-48 75l-48 -75h-35z" />
    <glyph glyph-name="edieresis" unicode="&#xeb;" horiz-adv-x="348" 
d="M199 -7q-70 0 -118.5 68t-48.5 192v9q0 130 41.5 200.5t102.5 70.5q60 0 98.5 -68.5t38.5 -188.5v-31h-239q1 -102 38 -157t93 -55q45 0 91 31l5 -43q-49 -28 -102 -28zM74 282h198q0 91 -27 151.5t-69 60.5q-43 0 -71 -55.5t-31 -156.5zM203 586v67h46v-67h-46zM103 586
v67h46v-67h-46z" />
    <glyph glyph-name="igrave" unicode="&#xec;" horiz-adv-x="160" 
d="M59 0v525h42v-525h-42zM69 576l-82 100l47 25l64 -125h-29z" />
    <glyph glyph-name="iacute" unicode="&#xed;" horiz-adv-x="160" 
d="M59 0v525h42v-525h-42zM62 576l64 125l47 -25l-82 -100h-29z" />
    <glyph glyph-name="icircumflex" unicode="&#xee;" horiz-adv-x="160" 
d="M59 0v525h42v-525h-42zM-4 581l67 122h34l67 -122h-37l-48 75l-48 -75h-35z" />
    <glyph glyph-name="idieresis" unicode="&#xef;" horiz-adv-x="160" 
d="M59 0v525h42v-525h-42zM107 586v67h46v-67h-46zM7 586v67h46v-67h-46z" />
    <glyph glyph-name="eth" unicode="&#xf0;" horiz-adv-x="361" 
d="M283 679l-66 -41q111 -170 111 -354v-15q0 -132 -43.5 -204.5t-104.5 -72.5q-60 0 -104 72.5t-44 193.5v9q0 119 42.5 192.5t100.5 73.5q41 0 81 -54q-23 67 -72 139l-70 -44l-19 30l69 43q-15 20 -49 60h52q26 -34 30 -40l67 42zM180 31q44 0 75 62.5t31 164.5v9
q0 106 -32.5 166.5t-75.5 60.5t-73.5 -63.5t-30.5 -163.5v-9q0 -101 31 -164t75 -63z" />
    <glyph glyph-name="ntilde" unicode="&#xf1;" horiz-adv-x="372" 
d="M53 0v525h42v-77q35 85 108 85q54 0 87 -43.5t33 -122.5v-367h-42v363q0 65 -22.5 99.5t-63.5 34.5q-43 0 -71.5 -39.5t-28.5 -102.5v-355h-42zM233 578q-22 0 -50 26q-24 23 -34 23q-16 0 -28 -45l-30 8q18 75 54 75q22 0 50 -26q24 -23 34 -23q16 0 28 45l30 -8
q-18 -75 -54 -75z" />
    <glyph glyph-name="ograve" unicode="&#xf2;" horiz-adv-x="362" 
d="M181 -8q-62 0 -105.5 73t-43.5 193v9q0 120 44 193t106 73t105 -73t43 -193v-9q0 -120 -43.5 -193t-105.5 -73zM181 31q45 0 76 63t31 164v9q0 101 -31 164t-76 63t-76 -63t-31 -164v-9q0 -101 31 -164t76 -63zM170 576l-82 100l47 25l64 -125h-29z" />
    <glyph glyph-name="oacute" unicode="&#xf3;" horiz-adv-x="362" 
d="M181 -8q-62 0 -105.5 73t-43.5 193v9q0 120 44 193t106 73t105 -73t43 -193v-9q0 -120 -43.5 -193t-105.5 -73zM181 31q45 0 76 63t31 164v9q0 101 -31 164t-76 63t-76 -63t-31 -164v-9q0 -101 31 -164t76 -63zM163 576l64 125l47 -25l-82 -100h-29z" />
    <glyph glyph-name="ocircumflex" unicode="&#xf4;" horiz-adv-x="362" 
d="M181 -8q-62 0 -105.5 73t-43.5 193v9q0 120 44 193t106 73t105 -73t43 -193v-9q0 -120 -43.5 -193t-105.5 -73zM181 31q45 0 76 63t31 164v9q0 101 -31 164t-76 63t-76 -63t-31 -164v-9q0 -101 31 -164t76 -63zM97 581l67 122h34l67 -122h-37l-48 75l-48 -75h-35z" />
    <glyph glyph-name="otilde" unicode="&#xf5;" horiz-adv-x="362" 
d="M181 -8q-62 0 -105.5 73t-43.5 193v9q0 120 44 193t106 73t105 -73t43 -193v-9q0 -120 -43.5 -193t-105.5 -73zM181 31q45 0 76 63t31 164v9q0 101 -31 164t-76 63t-76 -63t-31 -164v-9q0 -101 31 -164t76 -63zM227 578q-22 0 -50 26q-24 23 -34 23q-16 0 -28 -45l-30 8
q18 75 54 75q22 0 50 -26q24 -23 34 -23q16 0 28 45l30 -8q-18 -75 -54 -75z" />
    <glyph glyph-name="odieresis" unicode="&#xf6;" horiz-adv-x="362" 
d="M181 -8q-62 0 -105.5 73t-43.5 193v9q0 120 44 193t106 73t105 -73t43 -193v-9q0 -120 -43.5 -193t-105.5 -73zM181 31q45 0 76 63t31 164v9q0 101 -31 164t-76 63t-76 -63t-31 -164v-9q0 -101 31 -164t76 -63zM208 586v67h46v-67h-46zM108 586v67h46v-67h-46z" />
    <glyph glyph-name="divide" unicode="&#xf7;" horiz-adv-x="340" 
d="M143 444v71h54v-71h-54zM311 330h-282v44h282v-44zM143 189v71h54v-71h-54z" />
    <glyph glyph-name="oslash" unicode="&#xf8;" horiz-adv-x="362" 
d="M286 529h40l-36 -75q40 -77 40 -187v-9q0 -120 -43.5 -193t-105.5 -73q-47 0 -86 45l-19 -41h-40l36 76q-40 72 -40 186v9q0 120 44 193t106 73q46 0 85 -45zM181 30q45 0 76.5 63.5t31.5 164.5v9q0 84 -21 142l-157 -331q28 -48 70 -48zM73 258q0 -87 20 -142l158 331
q-30 48 -70 48q-45 0 -76.5 -63.5t-31.5 -164.5v-9z" />
    <glyph glyph-name="ugrave" unicode="&#xf9;" horiz-adv-x="372" 
d="M169 -8q-54 0 -87 43.5t-33 122.5v367h42v-363q0 -65 22.5 -99.5t63.5 -34.5q43 0 71.5 39.5t28.5 102.5v355h42v-525h-42v77q-35 -85 -108 -85zM173 571l-82 100l47 25l64 -125h-29z" />
    <glyph glyph-name="uacute" unicode="&#xfa;" horiz-adv-x="372" 
d="M169 -8q-54 0 -87 43.5t-33 122.5v367h42v-363q0 -65 22.5 -99.5t63.5 -34.5q43 0 71.5 39.5t28.5 102.5v355h42v-525h-42v77q-35 -85 -108 -85zM166 571l64 125l47 -25l-82 -100h-29z" />
    <glyph glyph-name="ucircumflex" unicode="&#xfb;" horiz-adv-x="372" 
d="M169 -8q-54 0 -87 43.5t-33 122.5v367h42v-363q0 -65 22.5 -99.5t63.5 -34.5q43 0 71.5 39.5t28.5 102.5v355h42v-525h-42v77q-35 -85 -108 -85zM100 576l67 122h34l67 -122h-37l-48 75l-48 -75h-35z" />
    <glyph glyph-name="udieresis" unicode="&#xfc;" horiz-adv-x="372" 
d="M169 -8q-54 0 -87 43.5t-33 122.5v367h42v-363q0 -65 22.5 -99.5t63.5 -34.5q43 0 71.5 39.5t28.5 102.5v355h42v-525h-42v77q-35 -85 -108 -85zM211 581v67h46v-67h-46zM111 581v67h46v-67h-46z" />
    <glyph glyph-name="yacute" unicode="&#xfd;" horiz-adv-x="346" 
d="M173 77l104 448h42l-159 -655h-40l33 135l-127 520h43zM154 571l64 125l47 -25l-82 -100h-29z" />
    <glyph glyph-name="thorn" unicode="&#xfe;" horiz-adv-x="376" 
d="M53 -130v837h42v-283q38 109 110 109q57 0 97 -70t40 -191v-19q0 -120 -40 -190.5t-97 -70.5q-72 0 -110 109v-231h-42zM200 29q42 0 71 60.5t29 164.5v17q0 104 -29 164.5t-71 60.5q-43 0 -75 -60t-32 -161v-25q0 -101 32 -161t75 -60z" />
    <glyph glyph-name="ydieresis" unicode="&#xff;" horiz-adv-x="346" 
d="M173 77l104 448h42l-159 -655h-40l33 135l-127 520h43zM99 581v67h46v-67h-46zM199 581v67h46v-67h-46z" />
    <glyph glyph-name="Amacron" unicode="&#x100;" horiz-adv-x="410" 
d="M28 0l153 703h48l153 -703h-46l-41 196h-182l-41 -196h-44zM121 236h166l-83 398zM109 757v41h192v-41h-192z" />
    <glyph glyph-name="amacron" unicode="&#x101;" horiz-adv-x="345" 
d="M148 -9q-53 0 -86.5 46t-33.5 116v8q0 75 36.5 121.5t101.5 46.5q44 0 88 -20v66q0 116 -100 116q-53 0 -97 -24v41q48 23 99 23q64 0 102 -38t38 -113v-380h-42v76q-34 -85 -106 -85zM154 28q45 0 72.5 40.5t27.5 95.5v105q-45 21 -86 21q-47 0 -72.5 -35t-25.5 -92v-8
q0 -56 22 -91.5t62 -35.5zM81 588v39h180v-39h-180z" />
    <glyph glyph-name="Abreve" unicode="&#x102;" horiz-adv-x="410" 
d="M28 0l153 703h48l153 -703h-46l-41 196h-182l-41 -196h-44zM121 236h166l-83 398zM205 748q-39 0 -64 20t-30 59h37q12 -39 57 -39t57 39h37q-5 -39 -30 -59t-64 -20z" />
    <glyph glyph-name="abreve" unicode="&#x103;" horiz-adv-x="345" 
d="M148 -9q-53 0 -86.5 46t-33.5 116v8q0 75 36.5 121.5t101.5 46.5q44 0 88 -20v66q0 116 -100 116q-53 0 -97 -24v41q48 23 99 23q64 0 102 -38t38 -113v-380h-42v76q-34 -85 -106 -85zM154 28q45 0 72.5 40.5t27.5 95.5v105q-45 21 -86 21q-47 0 -72.5 -35t-25.5 -92v-8
q0 -56 22 -91.5t62 -35.5zM171 579q-39 0 -64 23.5t-29 70.5h36q10 -55 57 -55t57 55h36q-4 -47 -29 -70.5t-64 -23.5z" />
    <glyph glyph-name="Aogonek" unicode="&#x104;" horiz-adv-x="410" 
d="M387 -87v-32q-11 -1 -20 -1q-62 0 -62 47q0 31 39 73h-8l-41 196h-182l-41 -196h-44l153 703h48l153 -703h-9q-28 -39 -28 -61q0 -26 42 -26zM121 236h166l-83 398z" />
    <glyph glyph-name="aogonek" unicode="&#x105;" horiz-adv-x="345" 
d="M303 -87v-32q-11 -1 -20 -1q-62 0 -62 47q0 31 39 73h-6v76q-34 -85 -106 -85q-53 0 -86.5 46t-33.5 116v8q0 75 36.5 121.5t101.5 46.5q44 0 88 -20v66q0 116 -100 116q-53 0 -97 -24v41q48 23 99 23q64 0 102 -38t38 -113v-380h-7q-28 -39 -28 -61q0 -26 42 -26z
M154 28q45 0 72.5 40.5t27.5 95.5v105q-45 21 -86 21q-47 0 -72.5 -35t-25.5 -92v-8q0 -56 22 -91.5t62 -35.5z" />
    <glyph glyph-name="Cacute" unicode="&#x106;" horiz-adv-x="329" 
d="M222 -6q-81 0 -133 89.5t-52 257.5v18q0 167 53.5 257t133.5 90q36 0 68 -17v-47q-38 22 -68 22q-61 0 -102 -80.5t-41 -224.5v-18q0 -144 41 -224.5t102 -80.5q35 0 71 23v-45q-33 -20 -73 -20zM187 745l62 104l48 -22l-78 -82h-32z" />
    <glyph glyph-name="cacute" unicode="&#x107;" horiz-adv-x="281" 
d="M192 -7q-67 0 -113.5 67t-46.5 196v10q0 128 47 197t113 69q36 0 63 -18v-46q-31 24 -64 24q-46 0 -81.5 -58t-35.5 -166v-14q0 -110 35.5 -165.5t85.5 -55.5q31 0 60 24v-44q-28 -20 -63 -20zM159 576l64 125l47 -25l-82 -100h-29z" />
    <glyph glyph-name="Cdotaccent" unicode="&#x10a;" horiz-adv-x="329" 
d="M222 -6q-81 0 -133 89.5t-52 257.5v18q0 167 53.5 257t133.5 90q36 0 68 -17v-47q-38 22 -68 22q-61 0 -102 -80.5t-41 -224.5v-18q0 -144 41 -224.5t102 -80.5q35 0 71 23v-45q-33 -20 -73 -20zM179 755v63h52v-63h-52z" />
    <glyph glyph-name="cdotaccent" unicode="&#x10b;" horiz-adv-x="281" 
d="M192 -7q-67 0 -113.5 67t-46.5 196v10q0 128 47 197t113 69q36 0 63 -18v-46q-31 24 -64 24q-46 0 -81.5 -58t-35.5 -166v-14q0 -110 35.5 -165.5t85.5 -55.5q31 0 60 24v-44q-28 -20 -63 -20zM152 586v67h50v-67h-50z" />
    <glyph glyph-name="Ccaron" unicode="&#x10c;" horiz-adv-x="329" 
d="M222 -6q-81 0 -133 89.5t-52 257.5v18q0 167 53.5 257t133.5 90q36 0 68 -17v-47q-38 22 -68 22q-61 0 -102 -80.5t-41 -224.5v-18q0 -144 41 -224.5t102 -80.5q35 0 71 23v-45q-33 -20 -73 -20zM297 847l-72 -97h-40l-72 97h42l51 -58l51 58h40z" />
    <glyph glyph-name="ccaron" unicode="&#x10d;" horiz-adv-x="281" 
d="M192 -7q-67 0 -113.5 67t-46.5 196v10q0 128 47 197t113 69q36 0 63 -18v-46q-31 24 -64 24q-46 0 -81.5 -58t-35.5 -166v-14q0 -110 35.5 -165.5t85.5 -55.5q31 0 60 24v-44q-28 -20 -63 -20zM261 703l-67 -122h-34l-67 122h37l48 -75l48 75h35z" />
    <glyph glyph-name="Dcaron" unicode="&#x10e;" horiz-adv-x="400" 
d="M56 0v700h83q101 0 162.5 -89t61.5 -252v-18q0 -163 -61.5 -252t-162.5 -89h-83zM138 660h-38v-620h40q81 0 130 78t49 223v18q0 144 -50 222.5t-131 78.5zM284 842l-72 -97h-40l-72 97h42l51 -58l51 58h40z" />
    <glyph glyph-name="dcaron" unicode="&#x10f;" horiz-adv-x="376" 
d="M171 -8q-57 0 -97 70t-40 191v19q0 120 40 190.5t97 70.5q72 0 110 -109v283h42v-707h-42v101q-38 -109 -110 -109zM176 29q43 0 75 60t32 161v25q0 101 -32 161t-75 60q-42 0 -71 -60.5t-29 -164.5v-17q0 -104 29 -164.5t71 -60.5zM355 559l7 148h38v-2l-25 -146h-20z
" />
    <glyph glyph-name="Dcroat" unicode="&#x110;" horiz-adv-x="406" 
d="M62 0v333h-55v38h55v329h83q101 0 162.5 -89t61.5 -252v-18q0 -163 -61.5 -252t-162.5 -89h-83zM194 333h-88v-293h40q81 0 130 78t49 223v18q0 144 -50 222.5t-131 78.5h-38v-289h88v-38z" />
    <glyph glyph-name="dcroat" unicode="&#x111;" horiz-adv-x="376" 
d="M175 599v36h106v72h42v-72h48v-36h-48v-599h-42v101q-38 -109 -110 -109q-57 0 -97 70t-40 191v19q0 120 40 190.5t97 70.5q72 0 110 -109v175h-106zM176 29q43 0 75 60t32 161v25q0 101 -32 161t-75 60q-42 0 -71 -60.5t-29 -164.5v-17q0 -104 29 -164.5t71 -60.5z" />
    <glyph glyph-name="Emacron" unicode="&#x112;" horiz-adv-x="325" 
d="M56 0v700h238v-40h-194v-287h177v-40h-177v-293h197v-40h-241zM81 752v41h192v-41h-192z" />
    <glyph glyph-name="emacron" unicode="&#x113;" horiz-adv-x="348" 
d="M199 -7q-70 0 -118.5 68t-48.5 192v9q0 130 41.5 200.5t102.5 70.5q60 0 98.5 -68.5t38.5 -188.5v-31h-239q1 -102 38 -157t93 -55q45 0 91 31l5 -43q-49 -28 -102 -28zM74 282h198q0 91 -27 151.5t-69 60.5q-43 0 -71 -55.5t-31 -156.5zM86 588v39h180v-39h-180z" />
    <glyph glyph-name="Ebreve" unicode="&#x114;" horiz-adv-x="325" 
d="M56 0v700h238v-40h-194v-287h177v-40h-177v-293h197v-40h-241zM177 743q-39 0 -64 20t-30 59h37q12 -39 57 -39t57 39h37q-5 -39 -30 -59t-64 -20z" />
    <glyph glyph-name="ebreve" unicode="&#x115;" horiz-adv-x="348" 
d="M199 -7q-70 0 -118.5 68t-48.5 192v9q0 130 41.5 200.5t102.5 70.5q60 0 98.5 -68.5t38.5 -188.5v-31h-239q1 -102 38 -157t93 -55q45 0 91 31l5 -43q-49 -28 -102 -28zM74 282h198q0 91 -27 151.5t-69 60.5q-43 0 -71 -55.5t-31 -156.5zM176 579q-39 0 -64 23.5
t-29 70.5h36q10 -55 57 -55t57 55h36q-4 -47 -29 -70.5t-64 -23.5z" />
    <glyph glyph-name="Edotaccent" unicode="&#x116;" horiz-adv-x="325" 
d="M56 0v700h238v-40h-194v-287h177v-40h-177v-293h197v-40h-241zM151 750v63h52v-63h-52z" />
    <glyph glyph-name="edotaccent" unicode="&#x117;" horiz-adv-x="348" 
d="M199 -7q-70 0 -118.5 68t-48.5 192v9q0 130 41.5 200.5t102.5 70.5q60 0 98.5 -68.5t38.5 -188.5v-31h-239q1 -102 38 -157t93 -55q45 0 91 31l5 -43q-49 -28 -102 -28zM74 282h198q0 91 -27 151.5t-69 60.5q-43 0 -71 -55.5t-31 -156.5zM151 586v67h50v-67h-50z" />
    <glyph glyph-name="Eogonek" unicode="&#x118;" horiz-adv-x="325" 
d="M56 0v700h238v-40h-194v-287h177v-40h-177v-293h197v-40h-11q-28 -39 -28 -61q0 -26 42 -26v-32q-11 -1 -20 -1q-62 0 -62 47q0 31 39 73h-201z" />
    <glyph glyph-name="eogonek" unicode="&#x119;" horiz-adv-x="348" 
d="M296 64l4 -35q-52 -61 -52 -90q0 -26 42 -26v-32q-11 -1 -20 -1q-62 0 -62 47q0 31 37 71q-23 -5 -46 -5q-70 0 -118.5 68t-48.5 192v9q0 130 41.5 200.5t102.5 70.5q60 0 98.5 -68.5t38.5 -188.5v-31h-239q1 -102 38 -157t93 -55q45 0 91 31zM74 282h198q0 91 -27 151.5
t-69 60.5q-43 0 -71 -55.5t-31 -156.5z" />
    <glyph glyph-name="Ecaron" unicode="&#x11a;" horiz-adv-x="325" 
d="M56 0v700h238v-40h-194v-287h177v-40h-177v-293h197v-40h-241zM269 842l-72 -97h-40l-72 97h42l51 -58l51 58h40z" />
    <glyph glyph-name="ecaron" unicode="&#x11b;" horiz-adv-x="348" 
d="M199 -7q-70 0 -118.5 68t-48.5 192v9q0 130 41.5 200.5t102.5 70.5q60 0 98.5 -68.5t38.5 -188.5v-31h-239q1 -102 38 -157t93 -55q45 0 91 31l5 -43q-49 -28 -102 -28zM74 282h198q0 91 -27 151.5t-69 60.5q-43 0 -71 -55.5t-31 -156.5zM260 703l-67 -122h-34l-67 122
h37l48 -75l48 75h35z" />
    <glyph glyph-name="Gbreve" unicode="&#x11e;" horiz-adv-x="393" 
d="M247 -7q-91 0 -150.5 91t-59.5 257v18q0 165 61.5 256t150.5 91q46 0 85 -22v-48q-45 28 -86 28q-69 0 -118 -80t-49 -225v-18q0 -148 47.5 -228t121.5 -80q26 0 48 9v276h-104v40h146v-341q-45 -24 -93 -24zM224 748q-39 0 -64 20t-30 59h37q12 -39 57 -39t57 39h37
q-5 -39 -30 -59t-64 -20z" />
    <glyph glyph-name="gbreve" unicode="&#x11f;" horiz-adv-x="376" 
d="M171 -132q-57 0 -115 21v43q63 -25 117 -25q108 0 108 106v124q-38 -109 -110 -109q-56 0 -96.5 66.5t-40.5 181.5v9q0 114 40.5 181t96.5 67q72 0 110 -109v101h42v-510q0 -71 -37 -108q-39 -39 -115 -39zM176 65q41 0 74 58t33 153v9q0 95 -33 153t-74 58t-70.5 -57
t-29.5 -155v-7q0 -98 29.5 -155t70.5 -57zM193 579q-39 0 -64 23.5t-29 70.5h36q10 -55 57 -55t57 55h36q-4 -47 -29 -70.5t-64 -23.5z" />
    <glyph glyph-name="Gdotaccent" unicode="&#x120;" horiz-adv-x="393" 
d="M247 -7q-91 0 -150.5 91t-59.5 257v18q0 165 61.5 256t150.5 91q46 0 85 -22v-48q-45 28 -86 28q-69 0 -118 -80t-49 -225v-18q0 -148 47.5 -228t121.5 -80q26 0 48 9v276h-104v40h146v-341q-45 -24 -93 -24zM198 755v63h52v-63h-52z" />
    <glyph glyph-name="gdotaccent" unicode="&#x121;" horiz-adv-x="376" 
d="M171 -132q-57 0 -115 21v43q63 -25 117 -25q108 0 108 106v124q-38 -109 -110 -109q-56 0 -96.5 66.5t-40.5 181.5v9q0 114 40.5 181t96.5 67q72 0 110 -109v101h42v-510q0 -71 -37 -108q-39 -39 -115 -39zM176 65q41 0 74 58t33 153v9q0 95 -33 153t-74 58t-70.5 -57
t-29.5 -155v-7q0 -98 29.5 -155t70.5 -57zM168 586v67h50v-67h-50z" />
    <glyph glyph-name="Gcommaaccent" unicode="&#x122;" horiz-adv-x="393" 
d="M247 -7q-91 0 -150.5 91t-59.5 257v18q0 165 61.5 256t150.5 91q46 0 85 -22v-48q-45 28 -86 28q-69 0 -118 -80t-49 -225v-18q0 -148 47.5 -228t121.5 -80q26 0 48 9v276h-104v40h146v-341q-45 -24 -93 -24zM202 -190l-11 18q31 17 28 52h-21v58h50v-54q0 -29 -10.5 -45
t-35.5 -29z" />
    <glyph glyph-name="gcommaaccent" unicode="&#x123;" horiz-adv-x="376" 
d="M171 -132q-57 0 -115 21v43q63 -25 117 -25q108 0 108 106v124q-38 -109 -110 -109q-56 0 -96.5 66.5t-40.5 181.5v9q0 114 40.5 181t96.5 67q72 0 110 -109v101h42v-510q0 -71 -37 -108q-39 -39 -115 -39zM176 65q41 0 74 58t33 153v9q0 95 -33 153t-74 58t-70.5 -57
t-29.5 -155v-7q0 -98 29.5 -155t70.5 -57zM212 728l11 -18q-31 -17 -28 -52h21v-58h-50v54q0 29 10.5 45t35.5 29z" />
    <glyph glyph-name="Hbar" unicode="&#x126;" horiz-adv-x="428" 
d="M7 555v38h55v107h44v-107h216v107h44v-107h55v-38h-55v-555h-44v332h-216v-332h-44v555h-55zM106 372h216v184h-216v-184z" />
    <glyph glyph-name="hbar" unicode="&#x127;" horiz-adv-x="372" 
d="M201 599h-106v-151q35 85 108 85q54 0 87 -43.5t33 -122.5v-367h-42v363q0 65 -22.5 99.5t-63.5 34.5q-43 0 -71.5 -39.5t-28.5 -102.5v-355h-42v599h-48v36h48v72h42v-72h106v-36z" />
    <glyph glyph-name="Imacron" unicode="&#x12a;" horiz-adv-x="170" 
d="M63 0v700h44v-700h-44zM-11 752v41h192v-41h-192z" />
    <glyph glyph-name="imacron" unicode="&#x12b;" horiz-adv-x="160" 
d="M59 0v525h42v-525h-42zM-10 588v39h180v-39h-180z" />
    <glyph glyph-name="Ibreve" unicode="&#x12c;" horiz-adv-x="170" 
d="M63 0v700h44v-700h-44zM85 743q-39 0 -64 20t-30 59h37q12 -39 57 -39t57 39h37q-5 -39 -30 -59t-64 -20z" />
    <glyph glyph-name="ibreve" unicode="&#x12d;" horiz-adv-x="160" 
d="M59 0v525h42v-525h-42zM80 579q-39 0 -64 23.5t-29 70.5h36q10 -55 57 -55t57 55h36q-4 -47 -29 -70.5t-64 -23.5z" />
    <glyph glyph-name="Iogonek" unicode="&#x12e;" horiz-adv-x="170" 
d="M63 0v700h44v-700h-6q-28 -39 -28 -61q0 -26 42 -26v-32q-11 -1 -20 -1q-62 0 -62 47q0 31 39 73h-9z" />
    <glyph glyph-name="iogonek" unicode="&#x12f;" horiz-adv-x="160" 
d="M59 0v525h42v-525h-6q-28 -39 -28 -61q0 -26 42 -26v-32q-11 -1 -20 -1q-62 0 -62 47q0 31 39 73h-7zM57 637v70h46v-70h-46z" />
    <glyph glyph-name="Idotaccent" unicode="&#x130;" horiz-adv-x="170" 
d="M63 0v700h44v-700h-44zM59 750v63h52v-63h-52z" />
    <glyph glyph-name="dotlessi" unicode="&#x131;" horiz-adv-x="160" 
d="M59 0v525h42v-525h-42z" />
    <glyph glyph-name="Kcommaaccent" unicode="&#x136;" horiz-adv-x="370" 
d="M56 0v700h44v-397l194 397h50l-161 -316l181 -384h-48l-158 336l-58 -114v-222h-44zM169 -180l-11 18q31 17 28 52h-21v58h50v-54q0 -29 -10.5 -45t-35.5 -29z" />
    <glyph glyph-name="kcommaaccent" unicode="&#x137;" horiz-adv-x="328" 
d="M53 0v707h42v-473l151 291h47l-117 -211l128 -314h-46l-107 270l-56 -101v-169h-42zM147 -180l-11 18q31 17 28 52h-21v58h50v-54q0 -29 -10.5 -45t-35.5 -29z" />
    <glyph glyph-name="Lacute" unicode="&#x139;" horiz-adv-x="284" 
d="M56 0v700h44v-660h176v-40h-220zM69 740l62 104l48 -22l-78 -82h-32z" />
    <glyph glyph-name="lacute" unicode="&#x13a;" horiz-adv-x="160" 
d="M59 0v707h42v-707h-42zM64 740l62 104l48 -22l-78 -82h-32z" />
    <glyph glyph-name="Lcommaaccent" unicode="&#x13b;" horiz-adv-x="284" 
d="M56 0v700h44v-660h176v-40h-220zM141 -185l-11 18q31 17 28 52h-21v58h50v-54q0 -29 -10.5 -45t-35.5 -29z" />
    <glyph glyph-name="lcommaaccent" unicode="&#x13c;" horiz-adv-x="160" 
d="M59 0v707h42v-707h-42zM58 -185l-11 18q31 17 28 52h-21v58h50v-54q0 -29 -10.5 -45t-35.5 -29z" />
    <glyph glyph-name="Lcaron" unicode="&#x13d;" horiz-adv-x="284" 
d="M56 0v700h44v-660h176v-40h-220zM138 552l7 148h38v-2l-25 -146h-20z" />
    <glyph glyph-name="lcaron" unicode="&#x13e;" horiz-adv-x="160" 
d="M59 0v707h42v-707h-42zM133 559l7 148h38v-2l-25 -146h-20z" />
    <glyph glyph-name="Ldot" unicode="&#x13f;" horiz-adv-x="284" 
d="M190 327v67h50v-67h-50zM56 0v700h44v-660h176v-40h-220z" />
    <glyph glyph-name="ldot" unicode="&#x140;" horiz-adv-x="208" 
d="M161 320v75h46v-75h-46zM59 0v707h42v-707h-42z" />
    <glyph glyph-name="Lslash" unicode="&#x141;" horiz-adv-x="290" 
d="M194 383l-88 -60v-283h176v-40h-220v293l-55 -38v49l55 36v360h44v-330l88 62v-49z" />
    <glyph glyph-name="lslash" unicode="&#x142;" horiz-adv-x="170" 
d="M165 391l-59 -39v-352h-42v323l-59 -40v49l59 39v336h42v-308l59 41v-49z" />
    <glyph glyph-name="Nacute" unicode="&#x143;" horiz-adv-x="420" 
d="M56 0v700h48l218 -588v588h42v-700h-43l-223 602v-602h-42zM192 735l62 104l48 -22l-78 -82h-32z" />
    <glyph glyph-name="nacute" unicode="&#x144;" horiz-adv-x="372" 
d="M53 0v525h42v-77q35 85 108 85q54 0 87 -43.5t33 -122.5v-367h-42v363q0 65 -22.5 99.5t-63.5 34.5q-43 0 -71.5 -39.5t-28.5 -102.5v-355h-42zM169 576l64 125l47 -25l-82 -100h-29z" />
    <glyph glyph-name="Ncommaaccent" unicode="&#x145;" horiz-adv-x="420" 
d="M56 0v700h48l218 -588v588h42v-700h-43l-223 602v-602h-42zM188 -180l-11 18q31 17 28 52h-21v58h50v-54q0 -29 -10.5 -45t-35.5 -29z" />
    <glyph glyph-name="ncommaaccent" unicode="&#x146;" horiz-adv-x="372" 
d="M53 0v525h42v-77q35 85 108 85q54 0 87 -43.5t33 -122.5v-367h-42v363q0 65 -22.5 99.5t-63.5 34.5q-43 0 -71.5 -39.5t-28.5 -102.5v-355h-42zM165 -180l-11 18q31 17 28 52h-21v58h50v-54q0 -29 -10.5 -45t-35.5 -29z" />
    <glyph glyph-name="Ncaron" unicode="&#x147;" horiz-adv-x="420" 
d="M56 0v700h48l218 -588v588h42v-700h-43l-223 602v-602h-42zM302 837l-72 -97h-40l-72 97h42l51 -58l51 58h40z" />
    <glyph glyph-name="ncaron" unicode="&#x148;" horiz-adv-x="372" 
d="M53 0v525h42v-77q35 85 108 85q54 0 87 -43.5t33 -122.5v-367h-42v363q0 65 -22.5 99.5t-63.5 34.5q-43 0 -71.5 -39.5t-28.5 -102.5v-355h-42zM271 703l-67 -122h-34l-67 122h37l48 -75l48 75h35z" />
    <glyph glyph-name="Omacron" unicode="&#x14c;" horiz-adv-x="406" 
d="M203 -8q-74 0 -120 91t-46 259v16q0 168 46 259t120 91t120 -91t46 -259v-16q0 -168 -46 -259t-120 -91zM203 32q54 0 88 81t34 229v16q0 148 -34 229t-88 81t-88 -81t-34 -229v-16q0 -148 34 -229t88 -81zM107 757v41h192v-41h-192z" />
    <glyph glyph-name="omacron" unicode="&#x14d;" horiz-adv-x="362" 
d="M181 -8q-62 0 -105.5 73t-43.5 193v9q0 120 44 193t106 73t105 -73t43 -193v-9q0 -120 -43.5 -193t-105.5 -73zM181 31q45 0 76 63t31 164v9q0 101 -31 164t-76 63t-76 -63t-31 -164v-9q0 -101 31 -164t76 -63zM91 588v39h180v-39h-180z" />
    <glyph glyph-name="Obreve" unicode="&#x14e;" horiz-adv-x="406" 
d="M203 -8q-74 0 -120 91t-46 259v16q0 168 46 259t120 91t120 -91t46 -259v-16q0 -168 -46 -259t-120 -91zM203 32q54 0 88 81t34 229v16q0 148 -34 229t-88 81t-88 -81t-34 -229v-16q0 -148 34 -229t88 -81zM203 748q-39 0 -64 20t-30 59h37q12 -39 57 -39t57 39h37
q-5 -39 -30 -59t-64 -20z" />
    <glyph glyph-name="obreve" unicode="&#x14f;" horiz-adv-x="362" 
d="M181 -8q-62 0 -105.5 73t-43.5 193v9q0 120 44 193t106 73t105 -73t43 -193v-9q0 -120 -43.5 -193t-105.5 -73zM181 31q45 0 76 63t31 164v9q0 101 -31 164t-76 63t-76 -63t-31 -164v-9q0 -101 31 -164t76 -63zM181 579q-39 0 -64 23.5t-29 70.5h36q10 -55 57 -55t57 55
h36q-4 -47 -29 -70.5t-64 -23.5z" />
    <glyph glyph-name="Ohungarumlaut" unicode="&#x150;" horiz-adv-x="406" 
d="M203 -8q-74 0 -120 91t-46 259v16q0 168 46 259t120 91t120 -91t46 -259v-16q0 -168 -46 -259t-120 -91zM203 32q54 0 88 81t34 229v16q0 148 -34 229t-88 81t-88 -81t-34 -229v-16q0 -148 34 -229t88 -81zM136 745l62 104l45 -21l-76 -83h-31zM226 745l62 104l45 -21
l-76 -83h-31z" />
    <glyph glyph-name="ohungarumlaut" unicode="&#x151;" horiz-adv-x="362" 
d="M181 -8q-62 0 -105.5 73t-43.5 193v9q0 120 44 193t106 73t105 -73t43 -193v-9q0 -120 -43.5 -193t-105.5 -73zM181 31q45 0 76 63t31 164v9q0 101 -31 164t-76 63t-76 -63t-31 -164v-9q0 -101 31 -164t76 -63zM206 576l64 125l43 -23l-78 -102h-29zM112 576l64 125
l43 -23l-78 -102h-29z" />
    <glyph glyph-name="OE" unicode="&#x152;" horiz-adv-x="559" 
d="M261 0q-101 0 -162.5 89t-61.5 252v18q0 163 61.5 252t162.5 89h267v-40h-194v-287h177v-40h-177v-293h197v-40h-270zM262 40h28v620h-30q-81 0 -130 -78t-49 -223v-18q0 -144 50 -222.5t131 -78.5z" />
    <glyph glyph-name="oe" unicode="&#x153;" horiz-adv-x="600" 
d="M181 -8q-62 0 -105.5 73t-43.5 193v9q0 120 44 193t106 73q41 0 73.5 -33.5t50.5 -94.5q17 62 50 95t72 33q60 0 98.5 -68.5t38.5 -188.5v-31h-239q1 -102 38 -157t93 -55q45 0 91 31l5 -43q-49 -28 -102 -28q-50 0 -89 34.5t-55 96.5q-18 -63 -51.5 -97.5t-74.5 -34.5z
M326 282h198q0 91 -27 151.5t-69 60.5t-70.5 -55.5t-31.5 -156.5zM181 31q45 0 76 63t31 164v9q0 101 -31 164t-76 63t-76 -63t-31 -164v-9q0 -101 31 -164t76 -63z" />
    <glyph glyph-name="Racute" unicode="&#x154;" horiz-adv-x="383" 
d="M56 0v700h87q92 0 146 -54q55 -55 55 -152v-2q0 -72 -32 -123t-89 -73l134 -296h-52l-127 285q-18 -3 -39 -3h-39v-282h-44zM100 321h43q73 0 115 44.5t42 125.5v2q0 82 -42.5 124.5t-116.5 42.5h-41v-339zM157 740l62 104l48 -22l-78 -82h-32z" />
    <glyph glyph-name="racute" unicode="&#x155;" horiz-adv-x="234" 
d="M53 0v525h42v-77q16 39 47.5 62.5t75.5 20.5v-45h-2q-53 0 -87 -34t-34 -100v-352h-42zM108 576l64 125l47 -25l-82 -100h-29z" />
    <glyph glyph-name="Rcommaaccent" unicode="&#x156;" horiz-adv-x="383" 
d="M56 0v700h87q92 0 146 -54q55 -55 55 -152v-2q0 -72 -32 -123t-89 -73l134 -296h-52l-127 285q-18 -3 -39 -3h-39v-282h-44zM100 321h43q73 0 115 44.5t42 125.5v2q0 82 -42.5 124.5t-116.5 42.5h-41v-339zM161 -180l-11 18q31 17 28 52h-21v58h50v-54q0 -29 -10.5 -45
t-35.5 -29z" />
    <glyph glyph-name="rcommaaccent" unicode="&#x157;" horiz-adv-x="234" 
d="M53 0v525h42v-77q16 39 47.5 62.5t75.5 20.5v-45h-2q-53 0 -87 -34t-34 -100v-352h-42zM54 -185l-11 18q31 17 28 52h-21v58h50v-54q0 -29 -10.5 -45t-35.5 -29z" />
    <glyph glyph-name="Rcaron" unicode="&#x158;" horiz-adv-x="383" 
d="M56 0v700h87q92 0 146 -54q55 -55 55 -152v-2q0 -72 -32 -123t-89 -73l134 -296h-52l-127 285q-18 -3 -39 -3h-39v-282h-44zM100 321h43q73 0 115 44.5t42 125.5v2q0 82 -42.5 124.5t-116.5 42.5h-41v-339zM267 842l-72 -97h-40l-72 97h42l51 -58l51 58h40z" />
    <glyph glyph-name="rcaron" unicode="&#x159;" horiz-adv-x="234" 
d="M53 0v525h42v-77q16 39 47.5 62.5t75.5 20.5v-45h-2q-53 0 -87 -34t-34 -100v-352h-42zM210 703l-67 -122h-34l-67 122h37l48 -75l48 75h35z" />
    <glyph glyph-name="Sacute" unicode="&#x15a;" horiz-adv-x="333" 
d="M155 -8q-56 0 -121 37v50q70 -45 122 -45q44 0 70.5 27.5t26.5 73.5v2q0 42 -19 80.5t-79 118.5q-72 97 -94 138.5t-22 88.5v2q0 62 39.5 102.5t97.5 40.5q53 0 106 -31v-50q-57 39 -107 39q-41 0 -66.5 -27.5t-25.5 -70.5v-2q0 -39 20 -76.5t79 -112.5
q66 -83 90.5 -132.5t24.5 -104.5v-2q0 -66 -40 -106t-102 -40zM155 745l62 104l48 -22l-78 -82h-32z" />
    <glyph glyph-name="sacute" unicode="&#x15b;" horiz-adv-x="279" 
d="M130 -6q-52 0 -105 25v44q57 -30 107 -30q34 0 57 21t23 57v2q0 54 -83 133q-58 55 -80.5 91.5t-22.5 76.5v2q0 53 35 84t84 31q47 0 87 -17v-44q-44 22 -89 22q-33 0 -54 -20t-21 -54v-2q0 -28 17.5 -55t65.5 -74q57 -56 80 -93.5t23 -78.5v-2q0 -53 -37 -86t-87 -33z
M122 576l64 125l47 -25l-82 -100h-29z" />
    <glyph glyph-name="Scedilla" unicode="&#x15e;" horiz-adv-x="333" 
d="M147 -110l-46 19l48 83q-53 1 -115 37v50q70 -45 122 -45q44 0 70.5 27.5t26.5 73.5v2q0 42 -19 80.5t-79 118.5q-72 97 -94 138.5t-22 88.5v2q0 62 39.5 102.5t97.5 40.5q53 0 106 -31v-50q-57 39 -107 39q-41 0 -66.5 -27.5t-25.5 -70.5v-2q0 -39 20 -76.5t79 -112.5
q66 -83 90.5 -132.5t24.5 -104.5v-2q0 -57 -31 -95.5t-81 -47.5z" />
    <glyph glyph-name="scedilla" unicode="&#x15f;" horiz-adv-x="279" 
d="M118 -110l-46 19l49 85q-47 1 -96 25v44q57 -30 107 -30q34 0 57 21t23 57v2q0 54 -83 133q-58 55 -80.5 91.5t-22.5 76.5v2q0 53 35 84t84 31q47 0 87 -17v-44q-44 22 -89 22q-33 0 -54 -20t-21 -54v-2q0 -28 17.5 -55t65.5 -74q57 -56 80 -93.5t23 -78.5v-2
q0 -46 -27.5 -77t-69.5 -39z" />
    <glyph glyph-name="Scaron" unicode="&#x160;" horiz-adv-x="333" 
d="M155 -8q-56 0 -121 37v50q70 -45 122 -45q44 0 70.5 27.5t26.5 73.5v2q0 42 -19 80.5t-79 118.5q-72 97 -94 138.5t-22 88.5v2q0 62 39.5 102.5t97.5 40.5q53 0 106 -31v-50q-57 39 -107 39q-41 0 -66.5 -27.5t-25.5 -70.5v-2q0 -39 20 -76.5t79 -112.5
q66 -83 90.5 -132.5t24.5 -104.5v-2q0 -66 -40 -106t-102 -40zM265 847l-72 -97h-40l-72 97h42l51 -58l51 58h40z" />
    <glyph glyph-name="scaron" unicode="&#x161;" horiz-adv-x="279" 
d="M130 -6q-52 0 -105 25v44q57 -30 107 -30q34 0 57 21t23 57v2q0 54 -83 133q-58 55 -80.5 91.5t-22.5 76.5v2q0 53 35 84t84 31q47 0 87 -17v-44q-44 22 -89 22q-33 0 -54 -20t-21 -54v-2q0 -28 17.5 -55t65.5 -74q57 -56 80 -93.5t23 -78.5v-2q0 -53 -37 -86t-87 -33z
M224 703l-67 -122h-34l-67 122h37l48 -75l48 75h35z" />
    <glyph glyph-name="Tcommaaccent" unicode="&#x162;" horiz-adv-x="296" 
d="M126 0v660h-114v40h272v-40h-114v-660h-44zM126 -185l-11 18q31 17 28 52h-21v58h50v-54q0 -29 -10.5 -45t-35.5 -29z" />
    <glyph glyph-name="tcommaaccent" unicode="&#x163;" horiz-adv-x="225" 
d="M162 -4q-93 0 -93 92v398h-50v39h50v148h42v-148h85v-39h-85v-392q0 -33 14 -45.5t41 -12.5q19 0 32 5v-39q-15 -6 -36 -6zM111 -185l-11 18q31 17 28 52h-21v58h50v-54q0 -29 -10.5 -45t-35.5 -29z" />
    <glyph glyph-name="Tcaron" unicode="&#x164;" horiz-adv-x="296" 
d="M126 0v660h-114v40h272v-40h-114v-660h-44zM240 842l-72 -97h-40l-72 97h42l51 -58l51 58h40z" />
    <glyph glyph-name="tcaron" unicode="&#x165;" horiz-adv-x="225" 
d="M162 -4q-93 0 -93 92v398h-50v39h50v148h42v-148h85v-39h-85v-392q0 -33 14 -45.5t41 -12.5q19 0 32 5v-39q-15 -6 -36 -6zM153 559l7 148h38v-2l-25 -146h-20z" />
    <glyph glyph-name="Umacron" unicode="&#x16a;" horiz-adv-x="407" 
d="M203 -9q-70 0 -110.5 51t-40.5 138v520h44v-521q0 -71 28.5 -109.5t78.5 -38.5t79 39t29 109v521h44v-520q0 -87 -41 -138t-111 -51zM107 747v41h192v-41h-192z" />
    <glyph glyph-name="umacron" unicode="&#x16b;" horiz-adv-x="372" 
d="M169 -8q-54 0 -87 43.5t-33 122.5v367h42v-363q0 -65 22.5 -99.5t63.5 -34.5q43 0 71.5 39.5t28.5 102.5v355h42v-525h-42v77q-35 -85 -108 -85zM94 583v39h180v-39h-180z" />
    <glyph glyph-name="Ubreve" unicode="&#x16c;" horiz-adv-x="407" 
d="M203 -9q-70 0 -110.5 51t-40.5 138v520h44v-521q0 -71 28.5 -109.5t78.5 -38.5t79 39t29 109v521h44v-520q0 -87 -41 -138t-111 -51zM203 738q-39 0 -64 20t-30 59h37q12 -39 57 -39t57 39h37q-5 -39 -30 -59t-64 -20z" />
    <glyph glyph-name="ubreve" unicode="&#x16d;" horiz-adv-x="372" 
d="M169 -8q-54 0 -87 43.5t-33 122.5v367h42v-363q0 -65 22.5 -99.5t63.5 -34.5q43 0 71.5 39.5t28.5 102.5v355h42v-525h-42v77q-35 -85 -108 -85zM184 574q-39 0 -64 23.5t-29 70.5h36q10 -55 57 -55t57 55h36q-4 -47 -29 -70.5t-64 -23.5z" />
    <glyph glyph-name="Uring" unicode="&#x16e;" horiz-adv-x="407" 
d="M203 -9q-70 0 -110.5 51t-40.5 138v520h44v-521q0 -71 28.5 -109.5t78.5 -38.5t79 39t29 109v521h44v-520q0 -87 -41 -138t-111 -51zM202 726q-33 0 -55.5 21.5t-22.5 52.5t23.5 52.5t56.5 21.5t55.5 -21.5t22.5 -52.5t-23.5 -52.5t-56.5 -21.5zM203 753q21 0 34.5 13.5
t13.5 33.5t-13.5 33.5t-34.5 13.5t-34.5 -13.5t-13.5 -33.5t13.5 -33.5t34.5 -13.5z" />
    <glyph glyph-name="uring" unicode="&#x16f;" horiz-adv-x="372" 
d="M169 -8q-54 0 -87 43.5t-33 122.5v367h42v-363q0 -65 22.5 -99.5t63.5 -34.5q43 0 71.5 39.5t28.5 102.5v355h42v-525h-42v77q-35 -85 -108 -85zM183 562q-33 0 -55.5 23t-22.5 56t23 56t57 23q33 0 55.5 -23t22.5 -56t-23 -56t-57 -23zM184 588q22 0 36 15t14 38t-14 38
t-36 15t-36 -15t-14 -38t14 -38t36 -15z" />
    <glyph glyph-name="Uhungarumlaut" unicode="&#x170;" horiz-adv-x="407" 
d="M203 -9q-70 0 -110.5 51t-40.5 138v520h44v-521q0 -71 28.5 -109.5t78.5 -38.5t79 39t29 109v521h44v-520q0 -87 -41 -138t-111 -51zM136 735l62 104l45 -21l-76 -83h-31zM226 735l62 104l45 -21l-76 -83h-31z" />
    <glyph glyph-name="uhungarumlaut" unicode="&#x171;" horiz-adv-x="372" 
d="M169 -8q-54 0 -87 43.5t-33 122.5v367h42v-363q0 -65 22.5 -99.5t63.5 -34.5q43 0 71.5 39.5t28.5 102.5v355h42v-525h-42v77q-35 -85 -108 -85zM209 571l64 125l43 -23l-78 -102h-29zM115 571l64 125l43 -23l-78 -102h-29z" />
    <glyph glyph-name="Uogonek" unicode="&#x172;" horiz-adv-x="407" 
d="M240 -87v-32q-11 -1 -20 -1q-62 0 -62 47q0 28 31 65q-64 5 -100.5 55t-36.5 133v520h44v-521q0 -71 28.5 -109.5t78.5 -38.5t79 39t29 109v521h44v-520q0 -81 -36.5 -131.5t-98.5 -56.5q-22 -32 -22 -53q0 -26 42 -26z" />
    <glyph glyph-name="uogonek" unicode="&#x173;" horiz-adv-x="372" 
d="M327 -87v-32q-11 -1 -20 -1q-62 0 -62 47q0 31 39 73h-7v77q-35 -85 -108 -85q-54 0 -87 43.5t-33 122.5v367h42v-363q0 -65 22.5 -99.5t63.5 -34.5q43 0 71.5 39.5t28.5 102.5v355h42v-525h-6q-28 -39 -28 -61q0 -26 42 -26z" />
    <glyph glyph-name="Wcircumflex" unicode="&#x174;" horiz-adv-x="611" 
d="M151 -5l-121 705h47l95 -611l114 611h41l113 -611l96 611h45l-121 -705h-41l-113 611l-114 -611h-41zM213 745l72 97h40l72 -97h-42l-51 58l-51 -58h-40z" />
    <glyph glyph-name="wcircumflex" unicode="&#x175;" horiz-adv-x="533" 
d="M141 -3l-109 528h44l84 -455l89 455h38l87 -455l86 455h41l-109 -528h-38l-88 442l-87 -442h-38zM182 576l67 122h34l67 -122h-37l-48 75l-48 -75h-35z" />
    <glyph glyph-name="Ycircumflex" unicode="&#x176;" horiz-adv-x="352" 
d="M154 0v302l-146 398h48l121 -343l122 343h45l-146 -398v-302h-44zM84 740l72 97h40l72 -97h-42l-51 58l-51 -58h-40z" />
    <glyph glyph-name="ycircumflex" unicode="&#x177;" horiz-adv-x="346" 
d="M173 77l104 448h42l-159 -655h-40l33 135l-127 520h43zM88 576l67 122h34l67 -122h-37l-48 75l-48 -75h-35z" />
    <glyph glyph-name="Ydieresis" unicode="&#x178;" horiz-adv-x="352" 
d="M154 0v302l-146 398h48l121 -343l122 343h45l-146 -398v-302h-44zM203 745v63h50v-63h-50zM99 745v63h50v-63h-50z" />
    <glyph glyph-name="Zacute" unicode="&#x179;" horiz-adv-x="336" 
d="M30 0v26l232 637h-221v37h267v-25l-232 -637h232v-38h-278zM154 740l62 104l48 -22l-78 -82h-32z" />
    <glyph glyph-name="zacute" unicode="&#x17a;" horiz-adv-x="290" 
d="M26 0v25l191 463h-181v37h227v-25l-191 -463h186v-37h-232zM130 576l64 125l47 -25l-82 -100h-29z" />
    <glyph glyph-name="Zdotaccent" unicode="&#x17b;" horiz-adv-x="336" 
d="M30 0v26l232 637h-221v37h267v-25l-232 -637h232v-38h-278zM146 750v63h52v-63h-52z" />
    <glyph glyph-name="zdotaccent" unicode="&#x17c;" horiz-adv-x="290" 
d="M26 0v25l191 463h-181v37h227v-25l-191 -463h186v-37h-232zM123 586v67h50v-67h-50z" />
    <glyph glyph-name="Zcaron" unicode="&#x17d;" horiz-adv-x="336" 
d="M30 0v26l232 637h-221v37h267v-25l-232 -637h232v-38h-278zM264 842l-72 -97h-40l-72 97h42l51 -58l51 58h40z" />
    <glyph glyph-name="zcaron" unicode="&#x17e;" horiz-adv-x="290" 
d="M26 0v25l191 463h-181v37h227v-25l-191 -463h186v-37h-232zM232 703l-67 -122h-34l-67 122h37l48 -75l48 75h35z" />
    <glyph glyph-name="florin" unicode="&#x192;" horiz-adv-x="323" 
d="M49 -5q-17 0 -40 7v41q21 -7 40 -7q48 0 55 75l28 278h-57v36h60l17 167q5 54 31.5 83.5t70.5 29.5q29 0 55 -11v-44q-26 12 -55 12q-52 0 -60 -78l-16 -159h99v-36h-102l-28 -281q-12 -113 -98 -113z" />
    <glyph glyph-name="Aringacute" unicode="&#x1fa;" horiz-adv-x="410" 
d="M28 0l145 666q-22 8 -35 26.5t-13 42.5q0 31 23.5 52.5t56.5 21.5t55.5 -21.5t22.5 -52.5q0 -48 -47 -68l146 -667h-46l-41 196h-182l-41 -196h-44zM121 236h166l-83 398zM204 688q21 0 34.5 13.5t13.5 33.5t-13.5 33.5t-34.5 13.5t-34.5 -13.5t-13.5 -33.5t13.5 -33.5
t34.5 -13.5zM187 830l63 84l45 -20l-74 -64h-34z" />
    <glyph glyph-name="aringacute" unicode="&#x1fb;" horiz-adv-x="345" 
d="M152 766l67 100l43 -23l-79 -77h-31zM148 -9q-53 0 -86.5 46t-33.5 116v8q0 75 36.5 121.5t101.5 46.5q44 0 88 -20v66q0 116 -100 116q-53 0 -97 -24v41q48 23 99 23q64 0 102 -38t38 -113v-380h-42v76q-34 -85 -106 -85zM154 28q45 0 72.5 40.5t27.5 95.5v105
q-45 21 -86 21q-47 0 -72.5 -35t-25.5 -92v-8q0 -56 22 -91.5t62 -35.5zM170 577q-33 0 -55.5 23t-22.5 56t23 56t57 23q33 0 55.5 -23t22.5 -56t-23 -56t-57 -23zM171 603q22 0 36 15t14 38t-14 38t-36 15t-36 -15t-14 -38t14 -38t36 -15z" />
    <glyph glyph-name="AEacute" unicode="&#x1fc;" horiz-adv-x="509" 
d="M3 0l197 700h278v-40h-194v-287h177v-40h-177v-293h197v-40h-241v196h-139l-55 -196h-43zM112 236h128v424h-10zM263 740l62 104l48 -22l-78 -82h-32z" />
    <glyph glyph-name="aeacute" unicode="&#x1fd;" horiz-adv-x="564" 
d="M148 -9q-53 0 -86.5 46t-33.5 116v8q0 75 36.5 121.5t101.5 46.5q44 0 88 -20v66q0 116 -100 116q-53 0 -97 -24v41q48 23 99 23q101 0 127 -89q38 91 109 91q60 0 98.5 -68.5t38.5 -188.5v-31h-239q1 -102 38 -157t93 -55q45 0 91 31l5 -43q-49 -28 -102 -28
q-46 0 -83.5 30.5t-58.5 88.5q-16 -53 -47 -87t-78 -34zM290 282h198q0 91 -27 151.5t-69 60.5t-70.5 -55.5t-31.5 -156.5zM154 28q39 0 67 39t39 93q-11 57 -8 111q-48 19 -84 19q-47 0 -72.5 -35t-25.5 -92v-8q0 -56 22 -91.5t62 -35.5zM260 576l64 125l47 -25l-82 -100
h-29z" />
    <glyph glyph-name="Oslashacute" unicode="&#x1fe;" horiz-adv-x="406" 
d="M327 708h43l-42 -102q41 -91 41 -248v-16q0 -168 -46 -259t-120 -91q-59 0 -100 57l-24 -57h-43l42 102q-41 91 -41 248v16q0 168 46 259t120 91q60 0 100 -58zM80 342q0 -118 21 -193l185 452q-32 68 -83 68q-54 0 -88.5 -81.5t-34.5 -229.5v-16zM203 31q54 0 88.5 81.5
t34.5 229.5v16q0 111 -21 192l-185 -452q32 -67 83 -67zM187 745l62 104l48 -22l-78 -82h-32z" />
    <glyph glyph-name="oslashacute" unicode="&#x1ff;" horiz-adv-x="362" 
d="M286 529h40l-36 -75q40 -77 40 -187v-9q0 -120 -43.5 -193t-105.5 -73q-47 0 -86 45l-19 -41h-40l36 76q-40 72 -40 186v9q0 120 44 193t106 73q46 0 85 -45zM181 30q45 0 76.5 63.5t31.5 164.5v9q0 84 -21 142l-157 -331q28 -48 70 -48zM73 258q0 -87 20 -142l158 331
q-30 48 -70 48q-45 0 -76.5 -63.5t-31.5 -164.5v-9zM163 576l64 125l47 -25l-82 -100h-29z" />
    <glyph glyph-name="Scommaaccent" unicode="&#x218;" horiz-adv-x="333" 
d="M155 -8q-56 0 -121 37v50q70 -45 122 -45q44 0 70.5 27.5t26.5 73.5v2q0 42 -19 80.5t-79 118.5q-72 97 -94 138.5t-22 88.5v2q0 62 39.5 102.5t97.5 40.5q53 0 106 -31v-50q-57 39 -107 39q-41 0 -66.5 -27.5t-25.5 -70.5v-2q0 -39 20 -76.5t79 -112.5
q66 -83 90.5 -132.5t24.5 -104.5v-2q0 -66 -40 -106t-102 -40zM135 -185l-11 18q31 17 28 52h-21v58h50v-54q0 -29 -10.5 -45t-35.5 -29z" />
    <glyph glyph-name="scommaaccent" unicode="&#x219;" horiz-adv-x="279" 
d="M130 -6q-52 0 -105 25v44q57 -30 107 -30q34 0 57 21t23 57v2q0 54 -83 133q-58 55 -80.5 91.5t-22.5 76.5v2q0 53 35 84t84 31q47 0 87 -17v-44q-44 22 -89 22q-33 0 -54 -20t-21 -54v-2q0 -28 17.5 -55t65.5 -74q57 -56 80 -93.5t23 -78.5v-2q0 -53 -37 -86t-87 -33z
M112 -185l-11 18q31 17 28 52h-21v58h50v-54q0 -29 -10.5 -45t-35.5 -29z" />
    <glyph glyph-name="schwa" unicode="&#x259;" horiz-adv-x="348" 
d="M149 532q70 0 118.5 -68t48.5 -192v-9q0 -130 -41.5 -200.5t-102.5 -70.5q-60 0 -98.5 68.5t-38.5 188.5v31h239q-1 102 -38 157t-93 55q-45 0 -91 -31l-5 43q49 28 102 28zM274 243h-198q0 -91 27 -151.5t69 -60.5q43 0 71 55.5t31 156.5z" />
    <glyph glyph-name="circumflex" unicode="&#x2c6;" horiz-adv-x="500" 
d="M166 581l67 122h34l67 -122h-37l-48 75l-48 -75h-35z" />
    <glyph glyph-name="caron" unicode="&#x2c7;" horiz-adv-x="500" 
d="M334 703l-67 -122h-34l-67 122h37l48 -75l48 75h35z" />
    <glyph glyph-name="breve" unicode="&#x2d8;" horiz-adv-x="500" 
d="M250 579q-39 0 -64 23.5t-29 70.5h36q10 -55 57 -55t57 55h36q-4 -47 -29 -70.5t-64 -23.5z" />
    <glyph glyph-name="dotaccent" unicode="&#x2d9;" horiz-adv-x="500" 
d="M225 586v67h50v-67h-50z" />
    <glyph glyph-name="ring" unicode="&#x2da;" horiz-adv-x="500" 
d="M249 577q-33 0 -55.5 23t-22.5 56t23 56t57 23q33 0 55.5 -23t22.5 -56t-23 -56t-57 -23zM250 603q22 0 36 15t14 38t-14 38t-36 15t-36 -15t-14 -38t14 -38t36 -15z" />
    <glyph glyph-name="ogonek" unicode="&#x2db;" horiz-adv-x="500" 
d="M289 -87v-32q-11 -1 -20 -1q-62 0 -62 47q0 31 43 77h28q-31 -44 -31 -65q0 -26 42 -26z" />
    <glyph glyph-name="tilde" unicode="&#x2dc;" horiz-adv-x="500" 
d="M294 578q-22 0 -50 26q-24 23 -34 23q-16 0 -28 -45l-30 8q18 75 54 75q22 0 50 -26q24 -23 34 -23q16 0 28 45l30 -8q-18 -75 -54 -75z" />
    <glyph glyph-name="hungarumlaut" unicode="&#x2dd;" horiz-adv-x="500" 
d="M239 576l64 125l43 -23l-78 -102h-29zM145 576l64 125l43 -23l-78 -102h-29z" />
    <glyph glyph-name="commaaccent" unicode="&#x326;" horiz-adv-x="500" 
d="M232 -185l-11 18q31 17 28 52h-21v58h50v-54q0 -29 -10.5 -45t-35.5 -29z" />
    <glyph glyph-name="baht" unicode="&#xe3f;" horiz-adv-x="373" 
d="M159 -120h-37l12 120h-17h-61v700h84q31 0 56 -7l9 86h36l-10 -98q45 -21 70.5 -62t25.5 -94v-2q0 -131 -128 -168v-2q63 -15 98 -58t35 -112v-2q0 -72 -42.5 -118t-117.5 -59zM100 373h21q29 0 49 4l24 275q-27 8 -56 8h-38v-287zM288 184q0 107 -91 138l-24 -277
q115 24 115 137v2zM100 40h18q16 0 23 1l25 289q-20 3 -41 3h-25v-293zM283 523q0 77 -59 114l-22 -250q81 35 81 134v2z" />
    <glyph glyph-name="Wgrave" unicode="&#x1e80;" horiz-adv-x="611" 
d="M151 -5l-121 705h47l95 -611l114 611h41l113 -611l96 611h45l-121 -705h-41l-113 611l-114 -611h-41zM323 740h-32l-78 82l48 22z" />
    <glyph glyph-name="wgrave" unicode="&#x1e81;" horiz-adv-x="533" 
d="M141 -3l-109 528h44l84 -455l89 455h38l87 -455l86 455h41l-109 -528h-38l-88 442l-87 -442h-38zM255 576l-82 100l47 25l64 -125h-29z" />
    <glyph glyph-name="Wacute" unicode="&#x1e82;" horiz-adv-x="611" 
d="M151 -5l-121 705h47l95 -611l114 611h41l113 -611l96 611h45l-121 -705h-41l-113 611l-114 -611h-41zM287 740l62 104l48 -22l-78 -82h-32z" />
    <glyph glyph-name="wacute" unicode="&#x1e83;" horiz-adv-x="533" 
d="M141 -3l-109 528h44l84 -455l89 455h38l87 -455l86 455h41l-109 -528h-38l-88 442l-87 -442h-38zM248 576l64 125l47 -25l-82 -100h-29z" />
    <glyph glyph-name="Wdieresis" unicode="&#x1e84;" horiz-adv-x="611" 
d="M151 -5l-121 705h47l95 -611l114 611h41l113 -611l96 611h45l-121 -705h-41l-113 611l-114 -611h-41zM332 750v63h50v-63h-50zM228 750v63h50v-63h-50z" />
    <glyph glyph-name="wdieresis" unicode="&#x1e85;" horiz-adv-x="533" 
d="M141 -3l-109 528h44l84 -455l89 455h38l87 -455l86 455h41l-109 -528h-38l-88 442l-87 -442h-38zM293 586v67h46v-67h-46zM193 586v67h46v-67h-46z" />
    <glyph glyph-name="Ygrave" unicode="&#x1ef2;" horiz-adv-x="352" 
d="M154 0v302l-146 398h48l121 -343l122 343h45l-146 -398v-302h-44zM194 735h-32l-78 82l48 22z" />
    <glyph glyph-name="ygrave" unicode="&#x1ef3;" horiz-adv-x="346" 
d="M173 77l104 448h42l-159 -655h-40l33 135l-127 520h43zM161 571l-82 100l47 25l64 -125h-29z" />
    <glyph glyph-name="enspace" unicode="&#x2002;" horiz-adv-x="500" 
 />
    <glyph glyph-name="emspace" unicode="&#x2003;" horiz-adv-x="1000" 
 />
    <glyph glyph-name="threeperemspace" unicode="&#x2004;" horiz-adv-x="333" 
 />
    <glyph glyph-name="fourperemspace" unicode="&#x2005;" horiz-adv-x="250" 
 />
    <glyph glyph-name="figurespace" unicode="&#x2007;" horiz-adv-x="360" 
 />
    <glyph glyph-name="thinspace" unicode="&#x2009;" horiz-adv-x="100" 
 />
    <glyph glyph-name="hairspace" unicode="&#x200a;" horiz-adv-x="50" 
 />
    <glyph glyph-name="endash" unicode="&#x2013;" horiz-adv-x="398" 
d="M40 276v40h318v-40h-318z" />
    <glyph glyph-name="emdash" unicode="&#x2014;" horiz-adv-x="578" 
d="M40 276v40h498v-40h-498z" />
    <glyph glyph-name="quoteleft" unicode="&#x2018;" horiz-adv-x="150" 
d="M42 513v74q0 46 16 70t58 44l12 -25q-55 -24 -51 -78h27v-85h-62z" />
    <glyph glyph-name="quoteright" unicode="&#x2019;" horiz-adv-x="150" 
d="M34 515l-12 25q55 24 51 78h-27v82h62v-71q0 -46 -16 -70t-58 -44z" />
    <glyph glyph-name="quotesinglbase" unicode="&#x201a;" horiz-adv-x="150" 
d="M32 -103l-12 25q55 24 51 78h-27v82h62v-71q0 -46 -16 -70t-58 -44z" />
    <glyph glyph-name="quotedblleft" unicode="&#x201c;" horiz-adv-x="280" 
d="M172 513v74q0 46 16 70t58 44l12 -25q-55 -24 -51 -78h27v-85h-62zM42 513v74q0 46 16 70t58 44l12 -25q-55 -24 -51 -78h27v-85h-62z" />
    <glyph glyph-name="quotedblright" unicode="&#x201d;" horiz-adv-x="280" 
d="M164 515l-12 25q55 24 51 78h-27v82h62v-71q0 -46 -16 -70t-58 -44zM34 515l-12 25q55 24 51 78h-27v82h62v-71q0 -46 -16 -70t-58 -44z" />
    <glyph glyph-name="quotedblbase" unicode="&#x201e;" horiz-adv-x="280" 
d="M162 -103l-12 25q55 24 51 78h-27v82h62v-71q0 -46 -16 -70t-58 -44zM32 -103l-12 25q55 24 51 78h-27v82h62v-71q0 -46 -16 -70t-58 -44z" />
    <glyph glyph-name="dagger" unicode="&#x2020;" horiz-adv-x="231" 
d="M95 238l8 290l-85 -10v43l85 -10l-11 149h48l-11 -149l84 10v-43l-84 10l8 -290h-42z" />
    <glyph glyph-name="daggerdbl" unicode="&#x2021;" horiz-adv-x="255" 
d="M103 0l12 149l-85 -10v43l85 -10l-10 178l10 178l-85 -10v43l85 -10l-11 149h48l-11 -149l84 10v-43l-84 10l10 -178l-10 -178l84 10v-43l-84 10l10 -149h-48z" />
    <glyph glyph-name="bullet" unicode="&#x2022;" horiz-adv-x="311" 
d="M156 244q-37 0 -59 26.5t-22 77.5v12q0 51 22 77.5t59 26.5t59 -26.5t22 -77.5v-12q0 -51 -22 -77.5t-59 -26.5z" />
    <glyph glyph-name="ellipsis" unicode="&#x2026;" horiz-adv-x="470" 
d="M363 0v85h64v-85h-64zM203 0v85h64v-85h-64zM43 0v85h64v-85h-64z" />
    <glyph glyph-name="perthousand" unicode="&#x2030;" horiz-adv-x="753" 
d="M130 411q29 0 47.5 33.5t18.5 90.5v8q0 57 -18.5 90.5t-47.5 33.5t-47.5 -33.5t-18.5 -90.5v-8q0 -57 18.5 -90.5t47.5 -33.5zM130 373q-43 0 -73 43.5t-30 118.5v8q0 75 30 118.5t73 43.5t73 -43.5t30 -118.5v-8q0 -75 -30 -118.5t-73 -43.5zM425 700l-160 -357
l-153 -343h-37l160 357l153 343h37zM370 33q29 0 47.5 33.5t18.5 90.5v8q0 57 -18.5 90.5t-47.5 33.5t-47.5 -33.5t-18.5 -90.5v-8q0 -57 18.5 -90.5t47.5 -33.5zM370 -5q-43 0 -73 43.5t-30 118.5v8q0 75 30 118.5t73 43.5t73 -43.5t30 -118.5v-8q0 -75 -30 -118.5
t-73 -43.5zM623 33q29 0 47.5 33.5t18.5 90.5v8q0 57 -18.5 90.5t-47.5 33.5t-47.5 -33.5t-18.5 -90.5v-8q0 -57 18.5 -90.5t47.5 -33.5zM623 -5q-43 0 -73 43.5t-30 118.5v8q0 75 30 118.5t73 43.5t73 -43.5t30 -118.5v-8q0 -75 -30 -118.5t-73 -43.5z" />
    <glyph glyph-name="guilsinglleft" unicode="&#x2039;" horiz-adv-x="217" 
d="M153 43l-121 208v8l121 208l30 -16l-106 -195l106 -197z" />
    <glyph glyph-name="guilsinglright" unicode="&#x203a;" horiz-adv-x="217" 
d="M64 467l121 -208v-8l-121 -208l-30 16l106 195l-106 197z" />
    <glyph glyph-name="fraction" unicode="&#x2044;" horiz-adv-x="60" 
d="M-129 0l145 358l138 343h35l-145 -358l-139 -343h-34z" />
    <glyph glyph-name="zero.sup" unicode="&#x2070;" 
d="M120 462q-94 0 -94 173v7q0 174 94 174t94 -173v-7q0 -174 -94 -174zM120 783q-58 0 -58 -140v-7q0 -141 58 -141t58 140v7q0 141 -58 141z" />
    <glyph glyph-name="four.sup" unicode="&#x2074;" 
d="M187 538v-72h-32v72h-135v25l127 251h40v-246h35v-30h-35zM155 568v190h-4l-94 -190h98z" />
    <glyph glyph-name="five.sup" unicode="&#x2075;" 
d="M105 462q-40 0 -70 21v39q31 -27 70 -27q33 0 49.5 21t16.5 57q0 37 -17.5 55t-46.5 18q-27 0 -47 -12l-24 11l11 167h145v-34h-114l-9 -106q19 7 41 7q44 0 71 -27t27 -78q0 -50 -28.5 -81t-74.5 -31z" />
    <glyph glyph-name="six.sup" unicode="&#x2076;" 
d="M121 462q-35 0 -57 22q-35 37 -35 128v14q0 98 30.5 144t82.5 46q27 0 48 -12v-37q-24 15 -48 15q-69 0 -77 -121q29 25 63 25q37 0 61.5 -27.5t24.5 -81.5q0 -51 -26 -83t-67 -32zM122 495q27 0 42 22.5t15 60.5q0 37 -15.5 56t-40.5 19q-34 0 -58 -27v-20
q0 -111 57 -111z" />
    <glyph glyph-name="seven.sup" unicode="&#x2077;" 
d="M89 466h-36l120 312h-143v34h179v-29z" />
    <glyph glyph-name="eight.sup" unicode="&#x2078;" 
d="M120 462q-42 0 -67.5 26t-25.5 70q0 63 53 87q-45 24 -45 80q0 43 24.5 67t60.5 24t60.5 -24t24.5 -67q0 -56 -45 -80q53 -24 53 -86q0 -45 -25.5 -71t-67.5 -26zM120 784q-23 0 -37 -16.5t-14 -42.5q0 -28 14 -46.5t37 -18.5t37 18.5t14 46.5q0 26 -14 42.5t-37 16.5z
M120 628q-26 0 -42.5 -19.5t-16.5 -49.5q0 -28 16 -46.5t43 -18.5t43 18.5t16 46.5q0 30 -16.5 49.5t-42.5 19.5z" />
    <glyph glyph-name="nine.sup" unicode="&#x2079;" 
d="M122 816q35 0 57 -22q35 -37 35 -128v-14q0 -98 -30.5 -144t-82.5 -46q-30 0 -55 14v36q27 -16 55 -16q69 0 77 116q-29 -25 -63 -25q-37 0 -61.5 28t-24.5 83q0 53 26 85.5t67 32.5zM120 620q34 0 58 27v25q0 111 -57 111q-27 0 -42 -23t-15 -63q0 -77 56 -77z" />
    <glyph glyph-name="zero.inf" unicode="&#x2080;" 
d="M120 -136q-94 0 -94 173v7q0 174 94 174t94 -173v-7q0 -174 -94 -174zM120 185q-58 0 -58 -140v-7q0 -141 58 -141t58 140v7q0 141 -58 141z" />
    <glyph glyph-name="one.inf" unicode="&#x2081;" horiz-adv-x="195" 
d="M124 -132h-35v304l-67 -37v36l70 43h32v-346z" />
    <glyph glyph-name="two.inf" unicode="&#x2082;" 
d="M24 -132v22l114 161q33 49 33 81q0 25 -16 38.5t-39 13.5q-43 0 -80 -43v41q34 36 83 36q38 0 63 -23t25 -62q0 -43 -40 -99l-92 -132h136v-34h-187z" />
    <glyph glyph-name="three.inf" unicode="&#x2083;" 
d="M101 -136q-40 0 -70 24v39q30 -30 72 -30q29 0 49 16.5t20 50.5q0 67 -102 70h-1v24l91 122h-129v34h175v-25l-95 -126q97 -14 97 -98q0 -47 -30.5 -74t-76.5 -27z" />
    <glyph glyph-name="four.inf" unicode="&#x2084;" 
d="M187 -60v-72h-32v72h-135v25l127 251h40v-246h35v-30h-35zM155 -30v190h-4l-94 -190h98z" />
    <glyph glyph-name="five.inf" unicode="&#x2085;" 
d="M105 -136q-40 0 -70 21v39q31 -27 70 -27q33 0 49.5 21t16.5 57q0 37 -17.5 55t-46.5 18q-27 0 -47 -12l-24 11l11 167h145v-34h-114l-9 -106q19 7 41 7q44 0 71 -27t27 -78q0 -50 -28.5 -81t-74.5 -31z" />
    <glyph glyph-name="six.inf" unicode="&#x2086;" 
d="M121 -136q-35 0 -57 22q-35 37 -35 128v14q0 98 30.5 144t82.5 46q27 0 48 -12v-37q-24 15 -48 15q-69 0 -77 -121q29 25 63 25q37 0 61.5 -27.5t24.5 -81.5q0 -51 -26 -83t-67 -32zM122 -103q27 0 42 22.5t15 60.5q0 37 -15.5 56t-40.5 19q-34 0 -58 -27v-20
q0 -111 57 -111z" />
    <glyph glyph-name="seven.inf" unicode="&#x2087;" 
d="M89 -132h-36l120 312h-143v34h179v-29z" />
    <glyph glyph-name="eight.inf" unicode="&#x2088;" 
d="M120 -136q-42 0 -67.5 26t-25.5 70q0 63 53 87q-45 24 -45 80q0 43 24.5 67t60.5 24t60.5 -24t24.5 -67q0 -56 -45 -80q53 -24 53 -86q0 -45 -25.5 -71t-67.5 -26zM120 186q-23 0 -37 -16.5t-14 -42.5q0 -28 14 -46.5t37 -18.5t37 18.5t14 46.5q0 26 -14 42.5t-37 16.5z
M120 30q-26 0 -42.5 -19.5t-16.5 -49.5q0 -28 16 -46.5t43 -18.5t43 18.5t16 46.5q0 30 -16.5 49.5t-42.5 19.5z" />
    <glyph glyph-name="nine.inf" unicode="&#x2089;" 
d="M122 218q35 0 57 -22q35 -37 35 -128v-14q0 -98 -30.5 -144t-82.5 -46q-30 0 -55 14v36q27 -16 55 -16q69 0 77 116q-29 -25 -63 -25q-37 0 -61.5 28t-24.5 83q0 53 26 85.5t67 32.5zM120 22q34 0 58 27v25q0 111 -57 111q-27 0 -42 -23t-15 -63q0 -77 56 -77z" />
    <glyph glyph-name="colonmonetary" unicode="&#x20a1;" horiz-adv-x="359" 
d="M283 779h36l-9 -87q10 -5 28 -17v-48q-24 16 -36 23l-64 -612q5 -1 14 -1q43 0 89 38v-47q-44 -32 -94 -32q-2 0 -5.5 0.5t-4.5 0.5l-13 -115h-36l13 121q-26 9 -51 29l-16 -150h-36l20 185q-67 93 -67 274v18q0 130 36 213.5t97 114.5l9 92h36l-8 -79q22 4 33 4
q9 0 21 -2zM154 91q25 -34 56 -46l64 615q-10 3 -22 3q-18 0 -39 -7zM93 341q0 -129 36 -209l53 506q-89 -69 -89 -279v-18z" />
    <glyph glyph-name="naira" unicode="&#x20a6;" horiz-adv-x="480" 
d="M464 242h-70v-242h-65l-72 242h-129v-242h-42v242h-70v35h70v150h-70v35h70v238h69l71 -238h126v238h42v-238h70v-35h-70v-150h70v-35zM128 427v-150h115l-46 150h-69zM239 427l46 -150h67v150h-113zM128 650v-190h59zM295 244l57 -184v184h-57z" />
    <glyph glyph-name="rupee" unicode="&#x20a8;" horiz-adv-x="586" 
d="M46 0v700h69q85 0 136 -55.5t51 -153.5v-2q0 -74 -28 -125.5t-80 -74.5l119 -289h-49l-113 278q-12 -2 -30 -2h-33v-276h-42zM88 313h37q63 0 99 46t36 129v2q0 84 -39.5 128t-107.5 44h-25v-349zM443 -6q-49 0 -101 25v42q55 -30 103 -30q33 0 55 22t22 58v2
q0 55 -80 134q-56 56 -77.5 91.5t-21.5 75.5v2q0 53 34 84t81 31q46 0 84 -17v-42q-43 22 -86 22q-32 0 -52 -21t-20 -55v-2q0 -28 17 -55.5t63 -74.5q55 -57 77 -93.5t22 -77.5v-2q0 -53 -35.5 -86t-84.5 -33z" />
    <glyph glyph-name="won" unicode="&#x20a9;" horiz-adv-x="619" 
d="M561 700l-30 -237h82v-35h-87l-19 -152h106v-35h-110l-31 -244h-53l-41 244h-138l-40 -244h-53l-31 244h-110v35h105l-19 152h-86v35h82l-30 237h45l25 -237h116l38 237h57l38 -237h114l27 237h43zM272 428l-25 -152h124l-24 152h-75zM131 428l17 -152h64l25 152h-106z
M383 428l25 -152h64l16 152h-105zM309 651l-31 -188h64l-30 188h-3zM173 49h3l31 192h-55zM444 49h3l21 192h-55z" />
    <glyph glyph-name="sheqel" unicode="&#x20aa;" horiz-adv-x="397" 
d="M146 139l-19 210h39l19 -199q6 -61 21 -87t55 -26h53v473h40v-510h-100q-52 0 -77 32.5t-31 106.5zM222 358q0 62 -16 88.5t-54 26.5h-69v-473h-40v510h116q102 0 102 -150v-189h-39v187z" />
    <glyph glyph-name="Euro" unicode="&#x20ac;" horiz-adv-x="359" 
d="M322 687v-48q-40 23 -68 23q-51 0 -88.5 -55.5t-49.5 -154.5h159v-35h-162q-2 -19 -2 -58v-18q0 -36 1 -53h163v-35h-159q12 -103 49.5 -159t88.5 -56q35 0 71 25v-47q-34 -20 -78 -20q-65 0 -113.5 66.5t-62.5 190.5h-60v35h57q-1 17 -1 53v18q0 39 2 58h-58v35h61
q14 121 64.5 186.5t117.5 65.5q36 0 68 -17z" />
    <glyph glyph-name="peso" unicode="&#x20b1;" horiz-adv-x="431" 
d="M73 0v461h-70v35h70v204h77q89 0 143 -55t58 -149h70v-35h-71q-5 -95 -58.5 -152.5t-145.5 -57.5h-29v-251h-44zM150 290q71 0 111.5 46t44.5 126h-189v-172h33zM117 660v-165h189q-4 78 -46 121.5t-112 43.5h-31z" />
    <glyph glyph-name="published" unicode="&#x2117;" horiz-adv-x="523" 
d="M261 -10q-106 0 -171.5 99t-65.5 244v35q0 146 65.5 244.5t171.5 98.5t172 -99t66 -244v-35q0 -145 -66 -244t-172 -99zM261 15q97 0 154.5 92t57.5 226v35q0 134 -57.5 226t-154.5 92t-154 -92t-57 -226v-35q0 -134 57 -226t154 -92zM194 164v385h55q49 0 80 -32.5
t31 -89.5v-2q0 -57 -30.5 -90.5t-80.5 -34.5h-21v-136h-34zM228 334h23q74 2 74 90v1q0 43 -20 66.5t-55 23.5h-22v-181z" />
    <glyph glyph-name="servicemark" unicode="&#x2120;" horiz-adv-x="415" 
d="M203 385v315h40l48 -154l48 154h39v-315h-30v257l-55 -174h-4l-56 174v-257h-30zM92 382q-32 0 -59 15v35q31 -21 58 -21q39 0 39 41q0 30 -41 77q-33 40 -44.5 59.5t-11.5 42.5q0 31 20 51.5t50 20.5q26 0 49 -13v-35q-29 19 -49 19q-17 0 -27.5 -11.5t-10.5 -29.5
q0 -15 8.5 -29.5t33.5 -43.5q31 -36 43 -59t12 -48q0 -32 -20 -51.5t-50 -19.5z" />
    <glyph glyph-name="trademark" unicode="&#x2122;" horiz-adv-x="389" 
d="M177 385v315h40l48 -154l48 154h39v-315h-30v257l-55 -174h-4l-56 174v-257h-30zM54 385v286h-50v29h132v-29h-51v-286h-31z" />
    <glyph glyph-name="onethird" unicode="&#x2153;" horiz-adv-x="495" 
d="M365 -4q-40 0 -70 24v39q30 -30 72 -30q29 0 49 16.5t20 50.5q0 67 -102 70h-1v24l91 122h-129v34h175v-25l-95 -126q97 -14 97 -98q0 -47 -30.5 -74t-76.5 -27zM126 354h-35v304l-67 -37v36l70 43h32v-346zM52 0l145 358l138 343h35l-145 -358l-139 -343h-34z" />
    <glyph glyph-name="twothirds" unicode="&#x2154;" horiz-adv-x="540" 
d="M415 -4q-40 0 -70 24v39q30 -30 72 -30q29 0 49 16.5t20 50.5q0 67 -102 70h-1v24l91 122h-129v34h175v-25l-95 -126q97 -14 97 -98q0 -47 -30.5 -74t-76.5 -27zM20 354v22l114 161q33 49 33 81q0 25 -16 38.5t-39 13.5q-43 0 -80 -43v41q34 36 83 36q38 0 63 -23t25 -62
q0 -43 -40 -99l-92 -132h136v-34h-187zM113 0l145 358l138 343h35l-145 -358l-139 -343h-34z" />
    <glyph glyph-name="onefifth" unicode="&#x2155;" horiz-adv-x="495" 
d="M359 -4q-40 0 -70 21v39q31 -27 70 -27q33 0 49.5 21t16.5 57q0 37 -17.5 55t-46.5 18q-27 0 -47 -12l-24 11l11 167h145v-34h-114l-9 -106q19 7 41 7q44 0 71 -27t27 -78q0 -50 -28.5 -81t-74.5 -31zM127 354h-35v304l-67 -37v36l70 43h32v-346zM53 0l145 358l138 343
h35l-145 -358l-139 -343h-34z" />
    <glyph glyph-name="twofifths" unicode="&#x2156;" horiz-adv-x="540" 
d="M424 -4q-40 0 -70 21v39q31 -27 70 -27q33 0 49.5 21t16.5 57q0 37 -18 55t-46 18t-47 -12l-24 11l11 167h145v-34h-114l-9 -106q19 7 41 7q44 0 71 -27t27 -78q0 -50 -28.5 -81t-74.5 -31zM118 0l145 358l138 343h35l-145 -358l-139 -343h-34zM20 354v22l114 161
q33 49 33 81q0 25 -16 38.5t-39 13.5q-43 0 -80 -43v41q34 36 83 36q38 0 63 -23t25 -62q0 -43 -40 -99l-92 -132h136v-34h-187z" />
    <glyph glyph-name="threefifths" unicode="&#x2157;" horiz-adv-x="540" 
d="M424 -4q-40 0 -70 21v39q31 -27 70 -27q33 0 49.5 21t16.5 57q0 37 -18 55t-46 18t-47 -12l-24 11l11 167h145v-34h-114l-9 -106q19 7 41 7q44 0 71 -27t27 -78q0 -50 -28.5 -81t-74.5 -31zM110 0l145 358l138 343h35l-145 -358l-139 -343h-34zM91 350q-40 0 -70 24v39
q30 -30 72 -30q29 0 49 16.5t20 50.5q0 67 -102 70h-1v24l91 122h-129v34h175v-25l-95 -126q97 -14 97 -98q0 -47 -30.5 -74t-76.5 -27z" />
    <glyph glyph-name="fourfifths" unicode="&#x2158;" horiz-adv-x="540" 
d="M178 426v-72h-32v72h-135v25l127 251h40v-246h35v-30h-35zM146 456v190h-4l-94 -190h98zM424 -4q-40 0 -70 21v39q31 -27 70 -27q33 0 49.5 21t16.5 57q0 37 -18 55t-46 18t-47 -12l-24 11l11 167h145v-34h-114l-9 -106q19 7 41 7q44 0 71 -27t27 -78q0 -50 -28.5 -81
t-74.5 -31zM112 0l145 358l138 343h35l-145 -358l-139 -343h-34z" />
    <glyph glyph-name="onesixth" unicode="&#x2159;" horiz-adv-x="495" 
d="M366 -4q-35 0 -57 22q-35 37 -35 128v14q0 98 30.5 144t82.5 46q27 0 48 -12v-37q-24 15 -48 15q-69 0 -77 -121q29 25 63 25q37 0 61.5 -27.5t24.5 -81.5q0 -51 -26 -83t-67 -32zM367 29q27 0 42 22.5t15 60.5q0 37 -15.5 56t-40.5 19q-34 0 -58 -27v-20q0 -111 57 -111
zM127 354h-35v304l-67 -37v36l70 43h32v-346zM58 0l145 358l138 343h35l-145 -358l-139 -343h-34z" />
    <glyph glyph-name="fivesixths" unicode="&#x215a;" horiz-adv-x="540" 
d="M430 -4q-35 0 -57 22q-35 37 -35 128v14q0 98 30.5 144t82.5 46q27 0 48 -12v-37q-24 15 -48 15q-69 0 -77 -121q29 25 63 25q37 0 61.5 -27.5t24.5 -81.5q0 -51 -26 -83t-67 -32zM431 29q27 0 42 22.5t15 60.5q0 37 -15.5 56t-40.5 19q-34 0 -58 -27v-20q0 -111 57 -111
zM110 0l145 358l138 343h35l-145 -358l-139 -343h-34zM100 350q-40 0 -70 21v39q31 -27 70 -27q33 0 49.5 21t16.5 57q0 37 -18 55t-46 18t-47 -12l-24 11l11 167h145v-34h-114l-9 -106q19 7 41 7q44 0 71 -27t27 -78q0 -50 -28.5 -81t-74.5 -31z" />
    <glyph glyph-name="oneeighth" unicode="&#x215b;" horiz-adv-x="495" 
d="M365 -4q-42 0 -67.5 26t-25.5 70q0 63 53 87q-45 24 -45 80q0 43 24.5 67t60.5 24t60.5 -24t24.5 -67q0 -56 -45 -80q53 -24 53 -86q0 -45 -25.5 -71t-67.5 -26zM365 318q-23 0 -37 -16.5t-14 -42.5q0 -28 14 -46.5t37 -18.5t37 18.5t14 46.5q0 26 -14 42.5t-37 16.5z
M365 162q-26 0 -42.5 -19.5t-16.5 -49.5q0 -28 16 -46.5t43 -18.5t43 18.5t16 46.5q0 30 -16.5 49.5t-42.5 19.5zM127 354h-35v304l-67 -37v36l70 43h32v-346zM58 0l145 358l138 343h35l-145 -358l-139 -343h-34z" />
    <glyph glyph-name="threeeighths" unicode="&#x215c;" horiz-adv-x="540" 
d="M429 -4q-42 0 -67.5 26t-25.5 70q0 63 53 87q-45 24 -45 80q0 43 24.5 67t60.5 24t60.5 -24t24.5 -67q0 -56 -45 -80q53 -24 53 -86q0 -45 -25.5 -71t-67.5 -26zM429 318q-23 0 -37 -16.5t-14 -42.5q0 -28 14 -46.5t37 -18.5t37 18.5t14 46.5q0 26 -14 42.5t-37 16.5z
M429 162q-26 0 -42.5 -19.5t-16.5 -49.5q0 -28 16 -46.5t43 -18.5t43 18.5t16 46.5q0 30 -16.5 49.5t-42.5 19.5zM110 0l145 358l138 343h35l-145 -358l-139 -343h-34zM97 350q-40 0 -70 24v39q30 -30 72 -30q29 0 49 16.5t20 50.5q0 67 -102 70h-1v24l91 122h-129v34h175
v-25l-95 -126q97 -14 97 -98q0 -47 -30.5 -74t-76.5 -27z" />
    <glyph glyph-name="fiveeighths" unicode="&#x215d;" horiz-adv-x="540" 
d="M429 -4q-42 0 -67.5 26t-25.5 70q0 63 53 87q-45 24 -45 80q0 43 24.5 67t60.5 24t60.5 -24t24.5 -67q0 -56 -45 -80q53 -24 53 -86q0 -45 -25.5 -71t-67.5 -26zM429 318q-23 0 -37 -16.5t-14 -42.5q0 -28 14 -46.5t37 -18.5t37 18.5t14 46.5q0 26 -14 42.5t-37 16.5z
M429 162q-26 0 -42.5 -19.5t-16.5 -49.5q0 -28 16 -46.5t43 -18.5t43 18.5t16 46.5q0 30 -16.5 49.5t-42.5 19.5zM110 0l145 358l138 343h35l-145 -358l-139 -343h-34zM100 350q-40 0 -70 21v39q31 -27 70 -27q33 0 49.5 21t16.5 57q0 37 -18 55t-46 18t-47 -12l-24 11
l11 167h145v-34h-114l-9 -106q19 7 41 7q44 0 71 -27t27 -78q0 -50 -28.5 -81t-74.5 -31z" />
    <glyph glyph-name="seveneighths" unicode="&#x215e;" horiz-adv-x="540" 
d="M410 -4q-42 0 -67.5 26t-25.5 70q0 63 53 87q-45 24 -45 80q0 43 24.5 67t60.5 24t60.5 -24t24.5 -67q0 -56 -45 -80q53 -24 53 -86q0 -45 -25.5 -71t-67.5 -26zM410 318q-23 0 -37 -16.5t-14 -42.5q0 -28 14 -46.5t37 -18.5t37 18.5t14 46.5q0 26 -14 42.5t-37 16.5z
M410 162q-26 0 -42.5 -19.5t-16.5 -49.5q0 -28 16 -46.5t43 -18.5t43 18.5t16 46.5q0 30 -16.5 49.5t-42.5 19.5zM89 354h-36l120 312h-143v34h179v-29zM75 0l145 358l138 343h35l-145 -358l-139 -343h-34z" />
    <glyph glyph-name="minus" unicode="&#x2212;" horiz-adv-x="340" 
d="M311 330h-282v44h282v-44z" />
    <glyph glyph-name="Q.alt" horiz-adv-x="406" 
d="M330 -97l-74 103q-26 -14 -53 -14q-74 0 -120 91t-46 259v16q0 168 46 259t120 91t120 -91t46 -259v-16q0 -223 -81 -311l92 -128h-50zM203 32q54 0 88 81t34 229v16q0 148 -34 229t-88 81t-88 -81t-34 -229v-16q0 -148 34 -229t88 -81z" />
    <glyph glyph-name="a.alt" horiz-adv-x="376" 
d="M171 -8q-57 0 -97 70t-40 191v19q0 120 40 190.5t97 70.5q72 0 110 -109v101h42v-525h-42v101q-38 -109 -110 -109zM176 29q43 0 75 60t32 161v25q0 101 -32 161t-75 60q-42 0 -71 -60.5t-29 -164.5v-17q0 -104 29 -164.5t71 -60.5z" />
    <glyph glyph-name="aacute.alt" horiz-adv-x="376" 
d="M171 -8q-57 0 -97 70t-40 191v19q0 120 40 190.5t97 70.5q72 0 110 -109v101h42v-525h-42v101q-38 -109 -110 -109zM176 29q43 0 75 60t32 161v25q0 101 -32 161t-75 60q-42 0 -71 -60.5t-29 -164.5v-17q0 -104 29 -164.5t71 -60.5zM175 576l64 125l47 -25l-82 -100h-29z
" />
    <glyph glyph-name="abreve.alt" horiz-adv-x="376" 
d="M171 -8q-57 0 -97 70t-40 191v19q0 120 40 190.5t97 70.5q72 0 110 -109v101h42v-525h-42v101q-38 -109 -110 -109zM176 29q43 0 75 60t32 161v25q0 101 -32 161t-75 60q-42 0 -71 -60.5t-29 -164.5v-17q0 -104 29 -164.5t71 -60.5zM193 579q-39 0 -64 23.5t-29 70.5h36
q10 -55 57 -55t57 55h36q-4 -47 -29 -70.5t-64 -23.5z" />
    <glyph glyph-name="acircumflex.alt" horiz-adv-x="376" 
d="M171 -8q-57 0 -97 70t-40 191v19q0 120 40 190.5t97 70.5q72 0 110 -109v101h42v-525h-42v101q-38 -109 -110 -109zM176 29q43 0 75 60t32 161v25q0 101 -32 161t-75 60q-42 0 -71 -60.5t-29 -164.5v-17q0 -104 29 -164.5t71 -60.5zM109 581l67 122h34l67 -122h-37
l-48 75l-48 -75h-35z" />
    <glyph glyph-name="adieresis.alt" horiz-adv-x="376" 
d="M171 -8q-57 0 -97 70t-40 191v19q0 120 40 190.5t97 70.5q72 0 110 -109v101h42v-525h-42v101q-38 -109 -110 -109zM176 29q43 0 75 60t32 161v25q0 101 -32 161t-75 60q-42 0 -71 -60.5t-29 -164.5v-17q0 -104 29 -164.5t71 -60.5zM220 586v67h46v-67h-46zM120 586v67
h46v-67h-46z" />
    <glyph glyph-name="agrave.alt" horiz-adv-x="376" 
d="M171 -8q-57 0 -97 70t-40 191v19q0 120 40 190.5t97 70.5q72 0 110 -109v101h42v-525h-42v101q-38 -109 -110 -109zM176 29q43 0 75 60t32 161v25q0 101 -32 161t-75 60q-42 0 -71 -60.5t-29 -164.5v-17q0 -104 29 -164.5t71 -60.5zM182 576l-82 100l47 25l64 -125h-29z
" />
    <glyph glyph-name="amacron.alt" horiz-adv-x="376" 
d="M171 -8q-57 0 -97 70t-40 191v19q0 120 40 190.5t97 70.5q72 0 110 -109v101h42v-525h-42v101q-38 -109 -110 -109zM176 29q43 0 75 60t32 161v25q0 101 -32 161t-75 60q-42 0 -71 -60.5t-29 -164.5v-17q0 -104 29 -164.5t71 -60.5zM103 588v39h180v-39h-180z" />
    <glyph glyph-name="aogonek.alt" horiz-adv-x="376" 
d="M331 -87v-32q-11 -1 -20 -1q-62 0 -62 47q0 31 39 73h-7v101q-38 -109 -110 -109q-57 0 -97 70t-40 191v19q0 120 40 190.5t97 70.5q72 0 110 -109v101h42v-525h-6q-28 -39 -28 -61q0 -26 42 -26zM176 29q43 0 75 60t32 161v25q0 101 -32 161t-75 60q-42 0 -71 -60.5
t-29 -164.5v-17q0 -104 29 -164.5t71 -60.5z" />
    <glyph glyph-name="aring.alt" horiz-adv-x="376" 
d="M171 -8q-57 0 -97 70t-40 191v19q0 120 40 190.5t97 70.5q72 0 110 -109v101h42v-525h-42v101q-38 -109 -110 -109zM176 29q43 0 75 60t32 161v25q0 101 -32 161t-75 60q-42 0 -71 -60.5t-29 -164.5v-17q0 -104 29 -164.5t71 -60.5zM192 577q-33 0 -55.5 23t-22.5 56
t23 56t57 23q33 0 55.5 -23t22.5 -56t-23 -56t-57 -23zM193 603q22 0 36 15t14 38t-14 38t-36 15t-36 -15t-14 -38t14 -38t36 -15z" />
    <glyph glyph-name="aring.alt2" horiz-adv-x="345" 
d="M148 -9q-53 0 -86.5 46t-33.5 116v8q0 75 36.5 121.5t101.5 46.5q44 0 88 -20v66q0 116 -100 116q-53 0 -97 -24v41q31 14 58 19q-23 21 -23 57q0 33 23 56t57 23q33 0 55.5 -23t22.5 -56q0 -41 -34 -64q24 -9 42 -27q38 -38 38 -113v-380h-42v76q-34 -85 -106 -85z
M154 28q45 0 72.5 40.5t27.5 95.5v105q-45 21 -86 21q-47 0 -72.5 -35t-25.5 -92v-8q0 -56 22 -91.5t62 -35.5zM121 584q0 -23 14 -38t36 -15t36 15t14 38t-14 38t-36 15t-36 -15t-14 -38z" />
    <glyph glyph-name="aringacute.alt" horiz-adv-x="376" 
d="M174 766l67 100l43 -23l-79 -77h-31zM171 -8q-57 0 -97 70t-40 191v19q0 120 40 190.5t97 70.5q72 0 110 -109v101h42v-525h-42v101q-38 -109 -110 -109zM176 29q43 0 75 60t32 161v25q0 101 -32 161t-75 60q-42 0 -71 -60.5t-29 -164.5v-17q0 -104 29 -164.5t71 -60.5z
M192 577q-33 0 -55.5 23t-22.5 56t23 56t57 23q33 0 55.5 -23t22.5 -56t-23 -56t-57 -23zM193 603q22 0 36 15t14 38t-14 38t-36 15t-36 -15t-14 -38t14 -38t36 -15z" />
    <glyph glyph-name="aringacute.alt2" horiz-adv-x="345" 
d="M152 680l67 100l43 -23l-79 -77h-31zM148 -9q-53 0 -86.5 46t-33.5 116v8q0 75 36.5 121.5t101.5 46.5q44 0 88 -20v66q0 116 -100 116q-53 0 -97 -24v41q31 14 58 19q-23 21 -23 57q0 33 23 56t57 23q33 0 55.5 -23t22.5 -56q0 -41 -34 -64q24 -9 42 -27q38 -38 38 -113
v-380h-42v76q-34 -85 -106 -85zM154 28q45 0 72.5 40.5t27.5 95.5v105q-45 21 -86 21q-47 0 -72.5 -35t-25.5 -92v-8q0 -56 22 -91.5t62 -35.5zM121 584q0 -23 14 -38t36 -15t36 15t14 38t-14 38t-36 15t-36 -15t-14 -38z" />
    <glyph glyph-name="atilde.alt" horiz-adv-x="376" 
d="M171 -8q-57 0 -97 70t-40 191v19q0 120 40 190.5t97 70.5q72 0 110 -109v101h42v-525h-42v101q-38 -109 -110 -109zM176 29q43 0 75 60t32 161v25q0 101 -32 161t-75 60q-42 0 -71 -60.5t-29 -164.5v-17q0 -104 29 -164.5t71 -60.5zM239 578q-22 0 -50 26q-24 23 -34 23
q-16 0 -28 -45l-30 8q18 75 54 75q22 0 50 -26q24 -23 34 -23q16 0 28 45l30 -8q-18 -75 -54 -75z" />
    <glyph glyph-name="three.alt" horiz-adv-x="310" 
d="M105 -8q-43 0 -84 18v41q45 -19 85 -19q59 0 94.5 42t35.5 115v2q0 146 -154 154v38q66 5 108.5 49t42.5 111v2q0 57 -30 90t-83 33q-45 0 -88 -25v41q44 24 94 24q72 0 111.5 -45.5t39.5 -114.5v-4q0 -127 -124 -177q59 -16 93 -62t34 -115v-2q0 -88 -47.5 -142
t-127.5 -54z" />
    <glyph glyph-name="registered.alt" horiz-adv-x="523" 
d="M261 -10q-106 0 -171.5 99t-65.5 244v35q0 146 65.5 244.5t171.5 98.5t172 -99t66 -244v-35q0 -145 -66 -244t-172 -99zM261 15q97 0 154.5 92t57.5 226v35q0 134 -57.5 226t-154.5 92t-154 -92t-57 -226v-35q0 -134 57 -226t154 -92zM187 164v385h59q51 0 81 -30
q31 -31 31 -85v-3q0 -78 -60 -106l69 -161h-38l-63 150q-9 -1 -18 -1h-27v-149h-34zM221 346h27q35 0 55 21t20 63v2q0 41 -21 62t-56 21h-25v-169z" />
    <glyph glyph-name="R_p" horiz-adv-x="656" 
d="M46 0v700h69q85 0 136 -55.5t51 -153.5v-2q0 -74 -28 -125.5t-80 -74.5l119 -289h-49l-113 278q-12 -2 -30 -2h-33v-276h-42zM88 313h37q63 0 99 46t36 129v2q0 84 -39.5 128t-107.5 44h-25v-349zM366 -130v659h41v-94q37 101 99 101q51 0 87 -71t36 -193v-19
q0 -120 -36 -190t-87 -70q-64 0 -99 97v-220h-41zM502 28q38 0 62.5 60.5t24.5 165.5v17q0 105 -24.5 167.5t-62.5 62.5t-67.5 -62.5t-29.5 -163.5v-25q0 -101 29.5 -161.5t67.5 -60.5z" />
    <glyph glyph-name="onehalf.alt" horiz-adv-x="540" 
d="M201 354h-182v32h78v275l-78 -40v38l81 44h32v-317h69v-32zM336 0v22l114 161q33 49 33 81q0 25 -16 38.5t-39 13.5q-43 0 -80 -43v41q34 36 83 36q38 0 63 -23t25 -62q0 -43 -40 -99l-92 -132h136v-34h-187zM120 0l145 358l138 343h35l-145 -358l-139 -343h-34z" />
    <glyph glyph-name="onethird.alt" horiz-adv-x="540" 
d="M201 354h-182v32h78v275l-78 -40v38l81 44h32v-317h69v-32zM415 -4q-40 0 -70 24v39q30 -30 72 -30q29 0 49 16.5t20 50.5q0 67 -102 70h-1v24l91 122h-129v34h175v-25l-95 -126q97 -14 97 -98q0 -47 -30.5 -74t-76.5 -27zM115 0l145 358l138 343h35l-145 -358l-139 -343
h-34z" />
    <glyph glyph-name="onequarter.alt" horiz-adv-x="540" 
d="M206 354h-182v32h78v275l-78 -40v38l81 44h32v-317h69v-32zM130 0l145 358l138 343h35l-145 -358l-139 -343h-34zM487 72v-72h-32v72h-135v25l127 251h40v-246h35v-30h-35zM455 102v190h-4l-94 -190h98z" />
    <glyph glyph-name="onefifth.alt" horiz-adv-x="540" 
d="M201 354h-182v32h78v275l-78 -40v38l81 44h32v-317h69v-32zM419 -4q-40 0 -70 21v39q31 -27 70 -27q33 0 49.5 21t16.5 57q0 37 -17.5 55t-46.5 18q-27 0 -47 -12l-24 11l11 167h145v-34h-114l-9 -106q19 7 41 7q44 0 71 -27t27 -78q0 -50 -28.5 -81t-74.5 -31zM120 0
l145 358l138 343h35l-145 -358l-139 -343h-34z" />
    <glyph glyph-name="onesixth.alt" horiz-adv-x="540" 
d="M201 354h-182v32h78v275l-78 -40v38l81 44h32v-317h69v-32zM435 -4q-35 0 -57 22q-35 37 -35 128v14q0 98 30.5 144t82.5 46q27 0 48 -12v-37q-24 15 -48 15q-69 0 -77 -121q29 25 63 25q37 0 61.5 -27.5t24.5 -81.5q0 -51 -26 -83t-67 -32zM436 29q27 0 42 22.5t15 60.5
q0 37 -15.5 56t-40.5 19q-34 0 -58 -27v-20q0 -111 57 -111zM125 0l145 358l138 343h35l-145 -358l-139 -343h-34z" />
    <glyph glyph-name="oneeighth.alt" horiz-adv-x="540" 
d="M201 354h-182v32h78v275l-78 -40v38l81 44h32v-317h69v-32zM434 -4q-42 0 -67.5 26t-25.5 70q0 63 53 87q-45 24 -45 80q0 43 24.5 67t60.5 24t60.5 -24t24.5 -67q0 -56 -45 -80q53 -24 53 -86q0 -45 -25.5 -71t-67.5 -26zM434 318q-23 0 -37 -16.5t-14 -42.5
q0 -28 14 -46.5t37 -18.5t37 18.5t14 46.5q0 26 -14 42.5t-37 16.5zM434 162q-26 0 -42.5 -19.5t-16.5 -49.5q0 -28 16 -46.5t43 -18.5t43 18.5t16 46.5q0 30 -16.5 49.5t-42.5 19.5zM125 0l145 358l138 343h35l-145 -358l-139 -343h-34z" />
    <glyph glyph-name="one.sup_alt" 
d="M217 466h-182v32h78v275l-78 -40v38l81 44h32v-317h69v-32z" />
    <glyph glyph-name="one.inf_alt" 
d="M217 -132h-182v32h78v275l-78 -40v38l81 44h32v-317h69v-32z" />
    <glyph glyph-name="zero.tab" horiz-adv-x="360" 
d="M180 -8q-73 0 -108.5 83.5t-35.5 265.5v16q0 183 35 267t109 84t109 -83t35 -266v-16q0 -182 -36 -266.5t-108 -84.5zM180 668q-100 0 -100 -309v-16q0 -311 100 -311t100 309v16q0 311 -100 311z" />
    <glyph glyph-name="one.tab" horiz-adv-x="360" 
d="M331 0h-284v40h128v606l-125 -83v50l129 87h39v-660h113v-40z" />
    <glyph glyph-name="two.tab" horiz-adv-x="360" 
d="M319 0h-287v29l175 332q60 114 60 188q0 53 -26 84t-70 31q-63 0 -120 -69v53q53 60 124 60q61 0 99.5 -43t38.5 -111v-4q0 -48 -15.5 -92.5t-51.5 -112.5l-159 -302h232v-43z" />
    <glyph glyph-name="three.tab" horiz-adv-x="360" 
d="M149 -8q-67 0 -112 43v48q50 -50 112 -50q58 0 91.5 42t33.5 118v6q0 142 -166 153h-3l-1 31l157 272h-224v45h278v-30l-164 -283q73 -10 120.5 -54.5t47.5 -132.5v-6q0 -94 -47 -148t-123 -54z" />
    <glyph glyph-name="three.tab_alt" horiz-adv-x="360" 
d="M150 -8q-74 0 -114 40v48q50 -48 115 -48q56 0 88.5 42t32.5 116q0 75 -44 113t-124 41h-4v39h4q73 5 118.5 49.5t45.5 115.5q0 55 -29 87.5t-75 32.5q-63 0 -117 -54v48q44 46 119 46q69 0 108 -44.5t39 -113.5q0 -131 -131 -184q62 -17 98 -62.5t36 -114.5
q0 -89 -45 -143t-121 -54z" />
    <glyph glyph-name="four.tab" horiz-adv-x="360" 
d="M241 0v161h-215v35l209 509h47v-505h56v-39h-56v-161h-41zM241 200v416h-4l-169 -416h173z" />
    <glyph glyph-name="five.tab" horiz-adv-x="360" 
d="M150 -8q-62 0 -103 37v47q47 -43 103 -43q59 0 90.5 50t31.5 134v3q0 80 -32 117t-83 37q-42 0 -77 -25l-31 20l15 331h226v-43h-188l-11 -259q27 18 72 18q66 0 109.5 -49.5t43.5 -146.5v-3q0 -100 -45.5 -162.5t-120.5 -62.5z" />
    <glyph glyph-name="six.tab" horiz-adv-x="360" 
d="M194 435q59 0 98 -52.5t39 -157.5v-4q0 -103 -39.5 -166t-102.5 -63q-46 0 -77 31q-67 65 -67 272v28q0 199 46.5 292t127.5 93q39 0 72 -20v-46q-39 23 -72 23q-35 0 -60.5 -24.5t-39.5 -67t-21 -88.5t-9 -100q50 50 105 50zM190 31q45 0 71.5 54t26.5 135v4
q0 84 -28 127.5t-70 43.5q-50 0 -101 -58v-55q0 -136 28.5 -193.5t72.5 -57.5z" />
    <glyph glyph-name="seven.tab" horiz-adv-x="360" 
d="M274 657h-234v43h278v-38l-196 -662h-44z" />
    <glyph glyph-name="eight.tab" horiz-adv-x="360" 
d="M180 -8q-65 0 -102.5 51t-37.5 135v7q0 62 23.5 109t67.5 67q-80 44 -80 166v6q0 82 36 128.5t93 46.5t93 -46.5t36 -128.5v-6q0 -122 -80 -166q44 -20 67.5 -67t23.5 -109v-7q0 -84 -37.5 -135t-102.5 -51zM180 380q40 0 62.5 43t22.5 105v4q0 63 -22 100t-63 37
t-63 -37t-22 -100v-4q0 -61 23 -104.5t62 -43.5zM180 31q46 0 72 41.5t26 107.5v3q0 69 -27.5 113.5t-70.5 44.5t-70.5 -44.5t-27.5 -113.5v-3q0 -66 26 -107.5t72 -41.5z" />
    <glyph glyph-name="nine.tab" horiz-adv-x="360" 
d="M171 259q-59 0 -98 53t-39 160v4q0 105 39.5 168.5t102.5 63.5q46 0 77 -31q67 -65 67 -272v-28q0 -199 -46.5 -292t-127.5 -93q-40 0 -82 23v46q47 -26 82 -26q34 0 60 24.5t40 65.5t21 86.5t8 96.5q-48 -49 -104 -49zM175 669q-45 0 -71.5 -54.5t-26.5 -137.5v-4
q0 -86 27.5 -130t70.5 -44q50 0 101 58v61q0 136 -28.5 193.5t-72.5 57.5z" />
    <glyph glyph-name="period.tab" horiz-adv-x="180" 
d="M53 0v90h74v-90h-74z" />
    <glyph glyph-name="comma.tab" horiz-adv-x="180" 
d="M47 -103l-12 25q55 24 51 78h-33v90h74v-79q0 -45 -18.5 -69t-61.5 -45z" />
    <glyph glyph-name="colon.tab" horiz-adv-x="180" 
d="M53 434v90h74v-90h-74zM53 0v90h74v-90h-74z" />
    <glyph glyph-name="semicolon.tab" horiz-adv-x="180" 
d="M53 434v90h74v-90h-74zM47 -103l-12 25q55 24 51 78h-33v90h74v-79q0 -45 -18.5 -69t-61.5 -45z" />
    <glyph glyph-name="twodotleader.tab" horiz-adv-x="360" 
d="M235 0v86h70v-86h-70zM55 0v86h70v-86h-70z" />
    <glyph glyph-name="periodcentered.tab" horiz-adv-x="180" 
d="M53 253v90h74v-90h-74z" />
    <glyph glyph-name="slash.tab" horiz-adv-x="360" 
d="M323 769l-262 -868h-38l261 868h39z" />
    <glyph glyph-name="bar.tab" horiz-adv-x="180" 
d="M72 -99v868h36v-868h-36z" />
    <glyph glyph-name="underscore.tab" horiz-adv-x="360" 
d="M-2 -158v35h364v-35h-364z" />
    <glyph glyph-name="dollar.tab" horiz-adv-x="360" 
d="M220 782l-5 -80q51 -8 92 -36v-46q-54 36 -94 43l-16 -285q71 -46 101.5 -93t30.5 -112v-2q0 -73 -43 -123t-112 -54l-6 -107h-34l6 108q-61 6 -115 44v46q60 -44 117 -50l18 313q-65 39 -97.5 83t-32.5 111v2q0 67 43 112.5t108 48.5l5 77h34zM286 173q0 96 -92 157
l-17 -296q52 4 80.5 42.5t28.5 94.5v2zM72 542q0 -51 23 -83.5t68 -62.5l15 269q-47 -3 -76.5 -36.5t-29.5 -84.5v-2z" />
    <glyph glyph-name="sterling.tab" horiz-adv-x="360" 
d="M91 364v169q0 88 47 135q39 39 100 39q49 0 77 -24l-2 -42q-30 26 -76 26q-42 0 -70 -28q-33 -33 -33 -107v-168h149v-38h-149v-287h206v-39h-301v21l52 18v287h-56v38h56z" />
    <glyph glyph-name="Euro.tab" horiz-adv-x="360" 
d="M12 417v35h61q14 121 63.5 186.5t118.5 65.5q40 0 69 -18v-46q-35 22 -69 22q-52 0 -88.5 -55t-48.5 -155h155v-35h-158q-2 -19 -2 -58v-18q0 -36 1 -53h159v-35h-155q12 -103 49 -159t90 -56q37 0 70 25v-46q-32 -21 -75 -21q-69 0 -117 66t-63 191h-60v35h57
q-1 16 -1 53v18q0 39 1 58h-57z" />
    <glyph glyph-name="yen.tab" horiz-adv-x="360" 
d="M57 176h102v99h-102v35h95l-138 390h48l119 -355l119 355h46l-139 -390h96v-35h-102v-99h102v-35h-102v-141h-42v141h-102v35z" />
    <glyph glyph-name="cent.tab" horiz-adv-x="360" 
d="M219 703v-83q57 -3 95 -43v-44q-44 42 -95 46v-458q53 3 95 47v-43q-34 -38 -95 -44v-86h-34v87q-136 21 -136 262v10q0 240 136 263v86h34zM91 342q0 -194 94 -218v451q-94 -23 -94 -219v-14z" />
    <glyph glyph-name="numbersign.tab" horiz-adv-x="360" 
d="M15 226h69l13 248h-62v40h64l10 186h35l-10 -186h109l10 186h35l-10 -186h67v-40h-69l-13 -248h62v-40h-64l-10 -186h-35l9 186h-109l-9 -186h-35l10 186h-67v40zM241 474h-109l-13 -248h109z" />
    <glyph glyph-name="paragraph.tab" horiz-adv-x="360" 
d="M256 0v259h-4q-110 0 -168.5 59.5t-58.5 161.5v2q0 101 59 159.5t164 58.5h52v-700h-44z" />
    <glyph glyph-name="section.tab" horiz-adv-x="360" 
d="M225 211q61 -45 61 -103v-2q0 -48 -34.5 -80.5t-91.5 -32.5q-44 0 -86 20l1 44q48 -25 87 -25t60 20t21 50v1q0 33 -21.5 56.5t-77.5 56.5q-70 40 -95.5 70t-25.5 71v2q0 82 112 130q-61 45 -61 103v2q0 48 34.5 80.5t91.5 32.5q44 0 86 -20l-1 -44q-48 25 -87 25
t-60 -20t-21 -50v-1q0 -33 21.5 -56.5t77.5 -56.5q70 -40 95.5 -70t25.5 -71v-2q0 -82 -112 -130zM166 467q-101 -40 -101 -106v-2q0 -29 20.5 -51.5t74.5 -54.5l16 -9q16 -10 18 -11q101 40 101 106v2q0 29 -20.5 51.5t-74.5 54.5l-16 9q-16 10 -18 11z" />
    <glyph glyph-name="degree.tab" horiz-adv-x="360" 
d="M180 325q-54 0 -90.5 51t-36.5 136v9q0 85 36.5 136t90.5 51t90.5 -51t36.5 -136v-9q0 -85 -36.5 -136t-90.5 -51zM180 361q41 0 65.5 41t24.5 110v9q0 69 -24.5 110.5t-65.5 41.5t-65.5 -41.5t-24.5 -110.5v-9q0 -69 24.5 -110t65.5 -41z" />
    <glyph glyph-name="percent.tab" horiz-adv-x="360" 
d="M101 705q41 0 65 -42t24 -111v-4q0 -70 -24 -112t-65 -42t-65.5 42t-24.5 111v4q0 69 24.5 111.5t65.5 42.5zM259 306q41 0 65.5 -42t24.5 -111v-4q0 -69 -24.5 -111.5t-65.5 -42.5t-65 42t-24 111v4q0 70 24 112t65 42zM306 700h34l-146 -357l-140 -343h-34l146 355z
M259 272q-53 0 -53 -119v-5q0 -119 53 -119t53 119v5q0 119 -53 119zM101 671q-53 0 -53 -119v-5q0 -119 53 -119t53 119v5q0 119 -53 119z" />
    <glyph glyph-name="quotedbl.tab" horiz-adv-x="360" 
d="M216 457l19 243h51l-1 -9l-50 -234h-19zM85 457l19 243h51l-1 -9l-50 -234h-19z" />
    <glyph glyph-name="quotesingle.tab" horiz-adv-x="180" 
d="M65 457l20 243h50l-1 -9l-49 -234h-20z" />
    <glyph glyph-name="plus.tab" horiz-adv-x="360" 
d="M325 332h-125v-129h-40v129h-125v40h125v129h40v-129h125v-40z" />
    <glyph glyph-name="minus.tab" horiz-adv-x="360" 
d="M325 330h-290v44h290v-44z" />
    <glyph glyph-name="divide.tab" horiz-adv-x="360" 
d="M152 447v72h56v-72h-56zM325 330h-290v44h290v-44zM152 185v72h56v-72h-56z" />
    <glyph glyph-name="equal.tab" horiz-adv-x="360" 
d="M320 403h-280v41h280v-41zM320 260h-280v41h280v-41z" />
    <glyph glyph-name="multiply.tab" horiz-adv-x="360" 
d="M275 217l-95 106l-95 -106l-30 26l99 109l-99 109l30 26l95 -106l95 106l30 -26l-99 -109l99 -109z" />
    <glyph glyph-name="less.tab" horiz-adv-x="360" 
d="M302 177l-257 155v40l257 155v-50l-212 -125l212 -125v-50z" />
    <glyph glyph-name="greater.tab" horiz-adv-x="360" 
d="M315 332l-257 -155v50l212 125l-212 125v50l257 -155v-40z" />
    <glyph glyph-name="plusminus.tab" horiz-adv-x="360" 
d="M325 333h-125v-128h-40v128h-125v41h125v128h40v-128h125v-41zM325 92h-290v42h290v-42z" />
    <glyph glyph-name="space.tab" horiz-adv-x="180" 
 />
    <glyph glyph-name="NUL" horiz-adv-x="0" 
 />
    <glyph glyph-name="hfjslug" horiz-adv-x="694" 
d="M644 -200h-208l-8 14h-163l-8 -14h-207v303q14 0 23 9.5t9 22.5t-9.5 22.5t-22.5 9.5v554h100l30 79h334l29 -79h101v-921zM400 563v-172h15v78h38v14h-38v66h43v14h-58zM184 563v-172h15v79h47v-79h15v172h-15v-79h-47v79h-15zM460 394q10 -4 21 -4q31 0 31 36v137h-16
v-137q0 -22 -16 -22q-8 0 -20 5v-15zM371 465l-13 3q-4 -18 -8 -30h-1l-16 31q23 21 23 42q0 31 -27 31q-12 0 -20 -9t-8 -22t14 -39q-23 -18 -23 -47q0 -16 8 -26.5t21 -10.5q19 0 29 24h1l12 -24l12 6l-17 32q6 14 13 39zM523 323v-46h8v12l8 8l15 -20h10l-20 26l18 20
h-10l-20 -24h-1v24h-8zM488 292l10 -15h9l-12 17q10 4 10 14q0 15 -17 15h-20v-46h8v15h12zM426 276q10 0 17 7t7 17q0 9 -7 16.5t-17 7.5t-17 -7.5t-7 -16.5q0 -10 7 -17t17 -7zM370 301l-13 22h-9l18 -29v-17h8v17l18 29h-9zM193 323v-46h34v7h-26v13h23v7h-23v12h26v7
h-34zM132 323v-46h8v32l25 -32h7v46h-8v-32l-25 32h-7zM241 323l14 -47h8l11 34h1l11 -34h8l14 47h-8l-10 -35h-1l-11 35h-7l-11 -35h-1l-10 35h-8zM327 479q-12 22 -12 32q0 19 14 19q13 0 13 -19q0 -15 -15 -32zM342 423q-8 -21 -20 -21q-16 0 -16 25q0 19 16 35zM487 299
h-11v17h11q10 0 10 -8q0 -9 -10 -9zM426 283q-16 0 -16 17q0 6 4.5 11.5t11.5 5.5t11.5 -5.5t4.5 -11.5q0 -17 -16 -17z" />
    <glyph glyph-name="i.dot" horiz-adv-x="160" 
d="M57 637v70h46v-70h-46zM59 0v525h42v-525h-42z" />
    <glyph glyph-name="zero.num" 
d="M120 350q-94 0 -94 173v7q0 174 94 174t94 -173v-7q0 -174 -94 -174zM120 671q-58 0 -58 -140v-7q0 -141 58 -141t58 140v7q0 141 -58 141z" />
    <glyph glyph-name="one.num" horiz-adv-x="195" 
d="M124 354h-35v304l-67 -37v36l70 43h32v-346z" />
    <glyph glyph-name="one.num_alt" 
d="M217 354h-182v32h78v275l-78 -40v38l81 44h32v-317h69v-32z" />
    <glyph glyph-name="two.num" 
d="M24 354v22l114 161q33 49 33 81q0 25 -16 38.5t-39 13.5q-43 0 -80 -43v41q34 36 83 36q38 0 63 -23t25 -62q0 -43 -40 -99l-92 -132h136v-34h-187z" />
    <glyph glyph-name="three.num" 
d="M101 350q-40 0 -70 24v39q30 -30 72 -30q29 0 49 16.5t20 50.5q0 67 -102 70h-1v24l91 122h-129v34h175v-25l-95 -126q97 -14 97 -98q0 -47 -30.5 -74t-76.5 -27z" />
    <glyph glyph-name="four.num" 
d="M187 426v-72h-32v72h-135v25l127 251h40v-246h35v-30h-35zM155 456v190h-4l-94 -190h98z" />
    <glyph glyph-name="five.num" 
d="M105 350q-40 0 -70 21v39q31 -27 70 -27q33 0 49.5 21t16.5 57q0 37 -17.5 55t-46.5 18q-27 0 -47 -12l-24 11l11 167h145v-34h-114l-9 -106q19 7 41 7q44 0 71 -27t27 -78q0 -50 -28.5 -81t-74.5 -31z" />
    <glyph glyph-name="six.num" 
d="M121 350q-35 0 -57 22q-35 37 -35 128v14q0 98 30.5 144t82.5 46q27 0 48 -12v-37q-24 15 -48 15q-69 0 -77 -121q29 25 63 25q37 0 61.5 -27.5t24.5 -81.5q0 -51 -26 -83t-67 -32zM122 383q27 0 42 22.5t15 60.5q0 37 -15.5 56t-40.5 19q-34 0 -58 -27v-20
q0 -111 57 -111z" />
    <glyph glyph-name="seven.num" 
d="M89 354h-36l120 312h-143v34h179v-29z" />
    <glyph glyph-name="eight.num" 
d="M120 350q-42 0 -67.5 26t-25.5 70q0 63 53 87q-45 24 -45 80q0 43 24.5 67t60.5 24t60.5 -24t24.5 -67q0 -56 -45 -80q53 -24 53 -86q0 -45 -25.5 -71t-67.5 -26zM120 672q-23 0 -37 -16.5t-14 -42.5q0 -28 14 -46.5t37 -18.5t37 18.5t14 46.5q0 26 -14 42.5t-37 16.5z
M120 516q-26 0 -42.5 -19.5t-16.5 -49.5q0 -28 16 -46.5t43 -18.5t43 18.5t16 46.5q0 30 -16.5 49.5t-42.5 19.5z" />
    <glyph glyph-name="nine.num" 
d="M122 704q35 0 57 -22q35 -37 35 -128v-14q0 -98 -30.5 -144t-82.5 -46q-30 0 -55 14v36q27 -16 55 -16q69 0 77 116q-29 -25 -63 -25q-37 0 -61.5 28t-24.5 83q0 53 26 85.5t67 32.5zM120 508q34 0 58 27v25q0 111 -57 111q-27 0 -42 -23t-15 -63q0 -77 56 -77z" />
    <glyph glyph-name="zero.den" 
d="M120 -4q-94 0 -94 173v7q0 174 94 174t94 -173v-7q0 -174 -94 -174zM120 317q-58 0 -58 -140v-7q0 -141 58 -141t58 140v7q0 141 -58 141z" />
    <glyph glyph-name="one.den" horiz-adv-x="195" 
d="M124 0h-35v304l-67 -37v36l70 43h32v-346z" />
    <glyph glyph-name="one.den_alt" 
d="M217 0h-182v32h78v275l-78 -40v38l81 44h32v-317h69v-32z" />
    <glyph glyph-name="two.den" 
d="M24 0v22l114 161q33 49 33 81q0 25 -16 38.5t-39 13.5q-43 0 -80 -43v41q34 36 83 36q38 0 63 -23t25 -62q0 -43 -40 -99l-92 -132h136v-34h-187z" />
    <glyph glyph-name="three.den" 
d="M101 -4q-40 0 -70 24v39q30 -30 72 -30q29 0 49 16.5t20 50.5q0 67 -102 70h-1v24l91 122h-129v34h175v-25l-95 -126q97 -14 97 -98q0 -47 -30.5 -74t-76.5 -27z" />
    <glyph glyph-name="four.den" 
d="M187 72v-72h-32v72h-135v25l127 251h40v-246h35v-30h-35zM155 102v190h-4l-94 -190h98z" />
    <glyph glyph-name="five.den" 
d="M105 -4q-40 0 -70 21v39q31 -27 70 -27q33 0 49.5 21t16.5 57q0 37 -17.5 55t-46.5 18q-27 0 -47 -12l-24 11l11 167h145v-34h-114l-9 -106q19 7 41 7q44 0 71 -27t27 -78q0 -50 -28.5 -81t-74.5 -31z" />
    <glyph glyph-name="six.den" 
d="M121 -4q-35 0 -57 22q-35 37 -35 128v14q0 98 30.5 144t82.5 46q27 0 48 -12v-37q-24 15 -48 15q-69 0 -77 -121q29 25 63 25q37 0 61.5 -27.5t24.5 -81.5q0 -51 -26 -83t-67 -32zM122 29q27 0 42 22.5t15 60.5q0 37 -15.5 56t-40.5 19q-34 0 -58 -27v-20q0 -111 57 -111
z" />
    <glyph glyph-name="seven.den" 
d="M89 0h-36l120 312h-143v34h179v-29z" />
    <glyph glyph-name="eight.den" 
d="M120 -4q-42 0 -67.5 26t-25.5 70q0 63 53 87q-45 24 -45 80q0 43 24.5 67t60.5 24t60.5 -24t24.5 -67q0 -56 -45 -80q53 -24 53 -86q0 -45 -25.5 -71t-67.5 -26zM120 318q-23 0 -37 -16.5t-14 -42.5q0 -28 14 -46.5t37 -18.5t37 18.5t14 46.5q0 26 -14 42.5t-37 16.5z
M120 162q-26 0 -42.5 -19.5t-16.5 -49.5q0 -28 16 -46.5t43 -18.5t43 18.5t16 46.5q0 30 -16.5 49.5t-42.5 19.5z" />
    <glyph glyph-name="nine.den" 
d="M122 350q35 0 57 -22q35 -37 35 -128v-14q0 -98 -30.5 -144t-82.5 -46q-30 0 -55 14v36q27 -16 55 -16q69 0 77 116q-29 -25 -63 -25q-37 0 -61.5 28t-24.5 83q0 53 26 85.5t67 32.5zM120 154q34 0 58 27v25q0 111 -57 111q-27 0 -42 -23t-15 -63q0 -77 56 -77z" />
    <glyph glyph-name="caron.alt" horiz-adv-x="500" 
d="M198 559l7 148h38v-2l-25 -146h-20z" />
    <glyph glyph-name="acute.cap" horiz-adv-x="500" 
d="M189 740l62 104l48 -22l-78 -82h-32z" />
    <glyph glyph-name="hungarumlaut.cap" horiz-adv-x="500" 
d="M144 740l62 104l45 -21l-76 -83h-31zM234 740l62 104l45 -21l-76 -83h-31z" />
    <glyph glyph-name="grave.cap" horiz-adv-x="500" 
d="M311 740h-32l-78 82l48 22z" />
    <glyph glyph-name="circumflex.cap" horiz-adv-x="500" 
d="M158 745l72 97h40l72 -97h-42l-51 58l-51 -58h-40z" />
    <glyph glyph-name="caron.cap" horiz-adv-x="500" 
d="M342 842l-72 -97h-40l-72 97h42l51 -58l51 58h40z" />
    <glyph glyph-name="breve.cap" horiz-adv-x="500" 
d="M250 743q-39 0 -64 20t-30 59h37q12 -39 57 -39t57 39h37q-5 -39 -30 -59t-64 -20z" />
    <glyph glyph-name="tilde.cap" horiz-adv-x="500" 
d="M179 746l-32 8q22 65 57 65q21 0 52 -21q28 -18 36 -18q16 0 29 35l32 -8q-22 -65 -57 -65q-21 0 -52 21q-28 18 -36 18q-16 0 -29 -35z" />
    <glyph glyph-name="macron.cap" horiz-adv-x="500" 
d="M154 752v41h192v-41h-192z" />
    <glyph glyph-name="dieresis.cap" horiz-adv-x="500" 
d="M277 750v63h50v-63h-50zM173 750v63h50v-63h-50z" />
    <glyph glyph-name="dotaccent.cap" horiz-adv-x="500" 
d="M224 750v63h52v-63h-52z" />
    <glyph glyph-name="ring.cap" horiz-adv-x="500" 
d="M249 741q-33 0 -55.5 21.5t-22.5 52.5t23.5 52.5t56.5 21.5t55.5 -21.5t22.5 -52.5t-23.5 -52.5t-56.5 -21.5zM250 768q21 0 34.5 13.5t13.5 33.5t-13.5 33.5t-34.5 13.5t-34.5 -13.5t-13.5 -33.5t13.5 -33.5t34.5 -13.5z" />
    </font>
</defs>
</svg>
